<svg xmlns="http://www.w3.org/2000/svg" width="535.41217" height="535.41217" viewBox="0 0 535.41217 535.41217">
  <title>big cog</title>
  <g id="Layer_2" data-name="Layer 2">
    <g id="tray_gear" data-name="tray gear">
      <path id="_Compound_Path_" data-name="&lt;Compound Path&gt;" d="M535.14362,272.376l-.35761-.17676-.35565-.1742-.35358-.17163-.3515-.16919-.34949-.16662-.34735-.16419-.34533-.16168-.34314-.1593-.341-.1568-.339-.15448-.33679-.152-.33459-.14966-.33246-.14727-.3302-.145-.32813-.14258-.3258-.14038-.32367-.13794-.32141-.1358-.31916-.13343-.31689-.13128-.31464-.129-.31231-.12683-.31012-.12457-.30774-.1225-.30542-.12024-.30316-.11823-.30079-.116-.2984-.1139-.29614-.11187-.2937-.1098-.29132-.10773-.8949-2.09973.86536-2.11213.28973-.11181.29218-.11389.29449-.116.29682-.11816.29913-.12018.30145-.12244.30371-.12457.306-.12677.30829-.12891.31055-.13122.3128-.13337.315-.13574.31727-.13794.31951-.14026.32166-.14251.32379-.1449.32605-.14716.32825-.14953.33032-.152.33246-.15436.33459-.15674.3368-.15911.3388-.16169.34088-.16406.343-.1665.345-.169.34711-.17157.34912-.17407.35113-.17664.35315-.17907.35517-.18177.26593-.18139-.1294-3.36542-.27911-.16046-.368-.15387-.36585-.15155-.36371-.14911-.36145-.14673-.35919-.14441-.35705-.142-.35474-.13977-.35248-.13739-.35028-.13513-.348-.13281-.34564-.13062-.34332-.12829-.341-.12616-.33874-.1239-.33637-.12171-.334-.11957-.33161-.11743-.32934-.11529-.32691-.11322-.32452-.11109-.32208-.10894-.31977-.10694-.31726-.105-.31488-.10284-.31232-.10089-.31-.09882-.3075-.097-.305-.09491-.30249-.09308-.3-.09113-.29754-.08923-1.025-2.03937.731-2.16229.28223-.12976.28442-.13208.28655-.13422.28883-.13653.291-.1388.29316-.14105.29528-.14343.29743-.14576.29962-.14807.30163-.15033.30384-.15283.30591-.15521.30792-.15753.31006-.16.31207-.16247.31415-.16492.3161-.16742.31818-.16986.32019-.17242.32208-.17487.32416-.17743.326-.18.32807-.1825.32995-.18518.33179-.18774.3338-.19037.33557-.19306.33753-.19555.33935-.19837.34119-.201.34308-.20367.254-.19775-.34052-3.35059-.28863-.14258-.377-.13049-.37463-.1283-.37225-.12591-.37-.12378-.36755-.12158-.3653-.11933-.36279-.11712-.36041-.115-.358-.11292-.35559-.11066-.35321-.10864-.35071-.1065-.34832-.1045-.34577-.10241-.34338-.10035-.34088-.09838-.33838-.09638-.33588-.09436-.33337-.09241-.33081-.09051-.32837-.08856-.32575-.08667-.32324-.08472-.32068-.08295-.31811-.08105-.31555-.07929-.313-.07739-.31037-.07562-.30774-.07391-.30517-.072-.30249-.07037-1.151-1.97107.59375-2.20392.2735-.14721.27551-.1496.27765-.152.27966-.15436.28168-.1568.28375-.15918.28571-.16168.28772-.16412.28967-.16657.29169-.16907.29357-.17157.29554-.17407.29748-.17663.29938-.1792.30127-.1817.3031-.18433.30505-.18689.30689-.18951.30859-.19214.31055-.19483.31238-.19745.31408-.20007.31592-.20282.31763-.2055.3194-.20819.3211-.211.32288-.21369.32458-.21643.32624-.21924.32788-.222.32959-.22485.24115-.21326-.55017-3.32263-.29706-.12421-.38446-.10657-.382-.10449-.3794-.10229-.377-.10035-.37451-.0982-.372-.09619-.36945-.09412-.36694-.09216-.36444-.09009-.36182-.0882-.35931-.08624-.35675-.08435-.35413-.0824-.35156-.08044-.349-.07861-.34637-.07679-.34375-.07489-.34119-.07312-.3385-.07129-.33582-.06958-.33331-.06775-.33057-.066-.32788-.06433-.32525-.06256-.32258-.06091-.31994-.05927-.3172-.05767-.31445-.056-.31183-.05439-.30908-.05279-.30634-.05121-1.27246-1.8949.45422-2.23687.26361-.16407.26569-.16668.26752-.16907.26947-.17169.27124-.17414.27319-.17669.275-.17932.27686-.18189.27862-.18439.28046-.187.28229-.1897.28406-.19232.28576-.19494.28754-.19757.28924-.20038.291-.20294.29266-.20569.29438-.20844.296-.21112.29772-.21393.29926-.21667.301-.21942.30256-.22223.30413-.225.30567-.22784.30725-.23072.30878-.23352.31036-.23645.31183-.23925.31329-.24219.31482-.245.2273-.22809-.75776-3.28149-.30419-.10529-.39045-.08221-.38775-.08026-.3852-.07837-.3825-.07642-.37989-.07446-.37732-.07269-.37469-.07074-.372-.06891-.36932-.06708-.3667-.06531-.364-.06347-.36126-.06177-.35865-.05994-.356-.05828-.35321-.05658-.35047-.05481-.34784-.05323-.345-.05151-.34234-.04993-.3396-.04834-.33686-.04663-.334-.04522-.33136-.04358-.32855-.042-.32575-.04058-.323-.03907-.32019-.03759-.31738-.03614-.31464-.03467-.31176-.03332-.309-.03192-1.389-1.81122.31287-2.26086.25286-.18049.2547-.18292.25635-.18561.25806-.18817.25989-.19091.26153-.19355.26319-.19616.26489-.19886.26654-.20153.26813-.20435.26977-.207.27136-.20972.273-.21246.27454-.21527.27612-.21814.27765-.22083.27918-.22369.2807-.2265.28216-.22931.28363-.23218.28516-.235.2865-.23791.28808-.24078.28937-.24372.29077-.24658.29212-.24951.29352-.2525.29492-.25544.29614-.25836.29749-.26135.29882-.26434.21253-.24189-.96228-3.22741-.3103-.086-.39472-.05762-.39209-.05572-.38934-.054-.38654-.05218-.38385-.05054-.38116-.04877-.3783-.04712-.37561-.04541-.37286-.04382-.37006-.04205-.36719-.04053-.36456-.03894-.36169-.03736-.35889-.03576-.35608-.0343-.35321-.03272-.35046-.03125-.3476-.02978-.34479-.02832-.342-.02692-.33905-.02545-.3363-.02405-.33337-.02277-.33051-.0213-.3277-.02-.32483-.01867-.3219-.0174-.319-.01617-.31616-.0149-.31329-.01361-.31037-.01251-1.49993-1.7204.17028-2.27612.24109-.19592.24262-.19855.24426-.20136.24579-.204.24731-.20678.24884-.20954.25037-.2124.25189-.21509.2533-.21789.25482-.22077.25622-.22351.25769-.22638.2591-.22924.26056-.23206.26184-.235.26324-.23785.26459-.24078.26593-.24366.26715-.24658.26856-.24951.26983-.25244.271-.25549.27228-.25837.27356-.26135.27472-.2644.27587-.2674.27717-.27038.27819-.27344.27942-.27649.28046-.27954.28162-.28253.197-.2547L518.3974,173.664l-.31506-.06628-.39759-.03272-.39477-.03106-.392-.02942-.3891-.02784-.38629-.02636-.38342-.02472-.3805-.02326-.37774-.02172-.37488-.02033-.37195-.01874-.36908-.01739-.36621-.01593-.36328-.01465-.36041-.01312-.35755-.01191-.35461-.01043-.35175-.00922-.34881-.00787-.34589-.00659-.343-.00544-.34-.00409-.3371-.00286-.33417-.00177-.33117-.00049-.32831.00055-.32532.00171-.32239.00286-.31946.00391-.31646.005-.31348.006-.31055.007-1.605-1.62281.0271-2.28228.22821-.2107.22974-.21344.23108-.21624.23254-.21906.23383-.222.23517-.22474.23657-.22766.23785-.23053.23914-.23333.24048-.23633.2417-.2392.243-.24213.24414-.245.24548-.248.24658-.251.24774-.25385.249-.257.25-.25982.25128-.26294.25232-.26587.25336-.26892.25445-.27191.25562-.275.25653-.278.25757-.28107.2586-.28418.25952-.28729.26056-.29041.26148-.29345.26239-.29657.2633-.29969.18054-.26666-1.35925-3.08136-.31854-.04645-.39887-.00763-.396-.00616-.39295-.00476-.39013-.00336-.38721-.002-.38422-.00061-.38128.00067-.3783.002-.37536.0033-.37238.00458-.36951.00586-.36645.00708-.36353.00823-.36053.00947-.35761.01062-.35455.01178-.35162.013-.34858.014-.34564.01514-.34265.01617-.33954.01728-.33667.01819-.33362.01928-.33062.02021-.32758.02124-.32458.02215-.32154.02307-.31854.024-.31555.02484-.3125.0257-.30945.02661-1.7038-1.51886-.11627-2.27954.2146-.22455.21582-.22748.2171-.23035.2182-.23321.21955-.23621.22058-.23907.2218-.242.2229-.245.22406-.24787.2251-.251.22626-.25385.22723-.257.22833-.25982.22937-.26294.23035-.266.23138-.26892.2323-.272.23322-.27508.23425-.27814.23511-.28113.236-.28436.23694-.28736.23773-.29052.23859-.29358.2395-.29675.24017-.29987.241-.303.24176-.30615.24256-.30927.24322-.3125.244-.31567.16351-.27734-1.55-2.99006-.32086-.02624-.39856.01739-.39557.01868-.39258.02-.38952.02112-.38648.02234-.38354.0235-.38049.02459-.37745.0257-.37439.02691-.37146.028-.36834.02893-.3653.03009-.3623.03113-.35919.032-.35621.03308-.35314.034-.3501.035-.34705.03589-.344.03681-.34088.03772-.33789.03845-.33484.03937-.33173.04022-.32867.041-.32557.04175-.32257.04248-.31952.04321-.3164.04389-.31329.04468-.31031.04522-.30719.046-1.79584-1.40893-.25915-2.2677.20007-.23761.20111-.24054.20215-.24353.20325-.24652.20422-.24945.20514-.25245.20618-.25555.20709-.25848.208-.26148.20892-.26459.20984-.26757.21076-.27069.21154-.27375.21234-.27673.2132-.27991.214-.283.21478-.28607.21552-.28912.21637-.29236.217-.29541.21771-.29852.21838-.30176.219-.30481.21979-.308.22027-.31115.221-.31427.22149-.31763.22211-.32068.2226-.32391.2232-.32715.22364-.33038.14563-.28711-1.73468-2.88672-.32184-.00611-.39667.04242-.39362.04346-.39056.04456-.38745.04553-.38434.04657-.38123.04748-.37817.04853-.37512.04937-.372.05036-.369.05121-.36572.05206-.36273.053-.35968.05371-.35645.05463-.35339.05536-.35034.05615-.34723.05688-.34412.05762-.34094.05829-.33789.059-.33484.05963-.3316.0603-.32862.06092-.32544.06152-.32239.06213-.31921.06263-.31616.06317-.313.06378-.30988.06421-.30682.06469-.30371.06507-1.88068-1.29334-.40112-2.24694.18481-.24964.18561-.25281.18653-.25567.18725-.25879.18817-.26178.18891-.26489.18969-.26795.19043-.27093.19123-.27411.19189-.27716.19263-.28022.19324-.28338.194-.28644.19464-.28961.19519-.29273.19586-.29583.19635-.299.197-.30207.19751-.3053.19806-.30853.19848-.31158.199-.31482.19946-.318.2-.32116.20032-.3244.20075-.32758.20117-.33081.20148-.33411.20184-.33728.20215-.34051.20251-.34369.12738-.29566-1.91253-2.77215-.32166.014-.39325.06732-.39008.06811-.387.069-.38379.06971-.38073.07067-.37751.07129-.37439.07215-.37127.07287-.36811.07361-.36493.07428-.36181.075-.35864.07563-.35553.07623-.35242.07684-.34918.07745-.34613.078-.343.07855-.33978.07916-.33667.07965-.33356.08-.33032.08063-.32727.081-.324.08142-.321.08179-.31787.08221-.31464.08265-.31158.08288-.30835.08331-.3053.0835-.30219.0838-.29895.08411-1.95825-1.17273-.54138-2.21735.16876-.26074.16937-.26392.17005-.267.17071-.27.17133-.27307.17193-.27619.17249-.2793.173-.2824.17365-.28553.17413-.28869.17462-.29181.17511-.29492.17554-.2981.176-.30121.17645-.30438.17688-.30762.17718-.31067.17768-.3139.17792-.31714.17828-.32025.17853-.32349.17889-.32672.17908-.32983.17938-.33313.17963-.3363.17981-.33961.17993-.34277.18017-.34607.18024-.34924.18036-.35254.18048-.35577.10864-.30311-2.08288-2.64654-.32007.03424-.38831.0918-.385.09247-.38189.09313-.37867.09375-.37548.09437-.37232.095-.36914.09539-.3659.09607-.36274.09656-.35962.097-.35638.09753-.35321.098-.35.09839-.34692.09888-.34363.09924-.34051.09961-.33734.1-.33417.10022-.331.10058-.32782.10089-.3247.1012-.32148.10132-.31835.10168-.31519.10181-.312.102-.30884.10223-.30572.1023-.30262.10241-.29944.1026-.29626.1026-.29315.10273-2.028-1.04749-.67956-2.179.152-.27088.15246-.274.153-.2771.15338-.28022.15387-.28332.15423-.28644.15461-.28955.155-.29279.15527-.29583.1557-.299.156-.30218.15625-.30536.15649-.30853.1568-.31165.15692-.31488.15717-.31811.15747-.32123.15747-.32446.15771-.32758.15778-.33087.1579-.33405.158-.33728.158-.34051.15808-.34369.15814-.34692.15814-.35022.15808-.35346.158-.35663.158-.35992.158-.3631.15778-.36645.08929-.30933-2.24487-2.5105-.31732.05426-.38172.116-.37848.11645-.37524.117-.372.11731-.3689.11773-.3656.11811-.36242.11853-.35914.11883-.356.11908-.35279.11945-.34955.11975-.34637.11993-.3432.12018-.33991.12048-.33679.12061-.33362.12073-.33038.121-.32721.12109-.324.12116-.32086.12127-.31775.12134-.31446.1214-.31134.1214-.30816.1214-.305.1214-.30188.1214-.2987.12127-.29553.12128-.29236.12116-.28931.121-.28607.12079-2.08978-.918-.815-2.132.13471-.27991.135-.283.13525-.28613.13556-.28931.13574-.29236.136-.29559.13605-.29877.13635-.30182.13641-.30505.1366-.30817.13666-.31146.13678-.31451.13684-.31775.1369-.32092.1369-.3241.1369-.32733.1369-.33045.13691-.33368.13678-.33691.13665-.34009.13666-.34332.13648-.3465.13641-.34979.13617-.3529.136-.35621.13574-.35943.13562-.36267.13537-.36585.13508-.36914.1347-.37237.13452-.37555.06976-.31433-2.39813-2.36469-.31329.07416-.37372.13971-.37036.14-.36725.1402-.36389.1405-.36072.14069-.35742.14081-.35425.14105-.35107.14111-.34784.14124-.34455.14142-.3413.14142-.3382.14141-.3349.14161-.33179.14148-.32849.14154-.32538.14141-.32214.14154-.319.14136-.3158.14124-.31256.14117-.30938.14105-.30634.14087-.3031.14075-.29993.14056-.29675.14032-.29364.14-.29047.13989-.28735.13953-.28424.13928-.28107.13892-.278.13861-2.14319-.785-.94733-2.0766.11688-.28778.117-.29095.117-.29407.11713-.29724.11706-.30035.11713-.30359.11707-.30664.11712-.30988.117-.313.117-.31616.11688-.31933.1167-.32251.11664-.32575.1164-.32886.11633-.332.11609-.33526.11584-.33838.11566-.34168.11536-.34479.11511-.34808.11481-.3512.11444-.35443.1142-.35754.11371-.3609.1134-.364.11291-.36719.11261-.37049.11206-.37365.11164-.37683.11114-.38007.11066-.3833.04987-.31812-2.54187-2.20941-.308.09363-.36414.1629-.3609.16309-.3576.163-.35449.163-.35114.16308-.3479.163-.34473.1629-.34143.1629-.33825.16291-.335.16266-.33179.16259-.32862.16242-.32537.16229-.32221.162-.319.16186-.31579.16169-.31263.16131-.30945.1612-.30633.16082-.3031.16053-.3.16021-.29675.15979-.29364.15949-.29059.15906-.28735.15869-.28424.15826-.28119.15778-.278.15735-.2749.1568-.27179.15637-.26868.15582L429.79,68.95544l-1.07581-2.013.09857-.29461.09839-.29767.09839-.3009.09821-.304.098-.30713.09784-.3103.09765-.31342.09742-.31659.0971-.3197.09687-.32294.09655-.32605.09626-.32922.09594-.3324.09558-.33551.09528-.33868.09479-.34192.09436-.345.09393-.34827.09351-.35138.09308-.35455.09246-.35773.092-.3609.0915-.36407.09088-.36725.09027-.37042.08972-.3736.089-.37677.08844-.38.08777-.38312.087-.38635.08637-.38947.02978-.32056-2.67559-2.04547-.30152.11286-.35315.18548-.35.18524-.34674.18525-.34345.18493-.34027.18476-.337.18457-.33374.18426-.33056.184-.32739.18372-.3241.18347-.321.183-.31781.1828-.31452.18238-.31134.18194-.30823.18164-.305.1811-.30188.18072-.29877.18024-.29559.17975-.29242.17926-.28931.17871-.28613.17816-.28314.17755-.27991.17706-.27685.17639-.27375.17579-.27075.17511-.26752.17449-.26452.17377-.26148.1731-.25842.17236-2.22473-.51019-1.20007-1.94153.07989-.30011.07953-.30334.07928-.30646.07886-.30951.07855-.31268.07813-.3158.07776-.319.07733-.32208.0769-.3252.07642-.32837.07593-.33142.07538-.33459.07482-.33777.07435-.34088.07373-.34406.07318-.3471.07251-.35029.0719-.35345.07129-.35657.07061-.35968.06983-.36285.06915-.366.06842-.36914.06763-.37219.06683-.37537.0661-.37848.06519-.38165.06439-.38477.06354-.38787.06262-.39106.06171-.3941.00958-.32184L415.243,44.27173l-.29382.13153-.34088.20727-.33765.207-.33441.20661-.33118.20611-.32788.20575-.32477.20539-.32159.20489-.3183.20441-.31518.20386-.312.20343-.30883.20294-.30567.20227-.30243.20178-.29937.20117-.29621.20063-.293.2-.28992.19934-.28686.19861-.28369.19793-.28058.19727-.27759.19653-.27441.1958-.27136.19495-.26825.19434-.26532.19335-.26215.19269-.25916.19177-.2561.19086-.253.19013-.25006.18914-.24707.18824-2.25238-.36945-1.3197-1.86236.06085-.30463.06042-.30768.05988-.31079.05926-.3139.05878-.317.05817-.32013.05755-.32318.057-.32636.05621-.32934.05567-.33252.055-.33551.05426-.33868.05347-.3418.05279-.34491.05194-.348.05127-.351.05036-.35418.04962-.35724.0487-.36035.04786-.36347.04693-.36645.046-.36963.04517-.37262.04407-.37573.04315-.37885.04223-.3819.04114-.385.04-.388.03906-.39111.038-.39416.0368-.39722-.01062-.32184-2.91077-1.694-.28509.14972-.32715.22827-.324.22772-.3208.22712-.31757.22662-.31439.22595-.31122.22534-.30805.22461-.30487.22406-.30175.22327-.29859.22265-.29547.22181-.29236.22113-.28924.2204-.28607.2196-.283.21875-.28.218-.2768.2171-.2738.21631-.27069.21539-.2677.21442-.26465.21356-.2616.21264-.25854.21167-.25562.21076-.25256.20965-.24951.20875-.24658.2077-.24366.2066-.24066.20557-.23767.20447-.2348.20343-2.27118-.22736-1.4339-1.77582.04163-.3078.04089-.31091.04022-.3139.03949-.317.0387-.32007.038-.32312.03717-.32617.03632-.32923.03546-.33227.03467-.33533.03375-.33838.0329-.34137.03192-.34448.03107-.34753.03009-.35053.029-.35357.02814-.35663.027-.35968.02594-.36267.025-.36573.02386-.36865.02265-.37176.0216-.37482.02051-.37775.01929-.3808.01813-.38383.0169-.38674.01563-.38977.0144-.39282.01312-.39575.01185-.3988-.03083-.3205-3.01147-1.50781-.275.16723-.31225.24842-.309.24762-.30585.24688-.30274.246-.29956.2453-.29644.24444-.29334.24353-.29022.24268-.28711.24188-.28406.24091-.28094.23993-.2779.23913-.27478.238-.27179.23706-.26879.23614-.26563.23511-.26263.23413-.25971.233-.25665.23194-.25372.23089-.25068.2298-.24774.22864-.24481.22748-.24176.22631-.23889.22516-.236.22394-.233.22278-.23022.2215-.22723.22033-.22437.219-.22156.21771-2.28088-.08429-1.54266-1.68225.02221-.30982.0213-.31286.02045-.3158.01947-.31885.01862-.32189.01757-.32489.01654-.32782.01563-.33081.01459-.33393.01355-.33679.01245-.33984.01135-.34284.01025-.34582.00916-.34876.008-.35174.00677-.35468.00562-.35773.00439-.36059.00323-.36365.0019-.36652.00061-.3695-.00061-.37244-.002-.37537-.00335-.37829-.00464-.38129-.006-.38415-.00745-.38709-.00891-.39-.01025-.39289-.01178-.39587-.01325-.39868-.05084-.31793-3.10022-1.3158-.264.1842-.296.26752-.29285.26654-.28979.26557-.28662.26458-.28363.26361-.28052.26252-.27746.26147-.27436.26044-.27142.2594-.26831.2583-.26538.25714-.26233.256-.25928.25488-.25635.25373-.25341.25256-.25037.25128-.24744.25012-.24457.24884-.24157.24762-.23865.24634-.23584.24506-.23285.24377-.23.24237-.22723.24109-.22425.23969-.22143.2384-.21863.23694-.21576.23547-.213.23413-.21021.23273-.20746.2312-2.28167.05908-1.64521-1.58209.00269-.31061.00165-.31353.00055-.31653-.00055-.3194-.00171-.32245-.00281-.32532-.004-.32824-.00518-.33118-.00641-.33411-.00769-.337-.00892-.34L358.752,23.093l-.01153-.34577-.0127-.34863-.01422-.3515-.01538-.35443-.01691-.35736-.01819-.36023-.01971-.3631-.02106-.366-.02264-.36877-.024-.37164-.02551-.37452-.0271-.37738-.02856-.38018-.03016-.38306-.03173-.38587-.03333-.38867-.03491-.39148-.03662-.39428-.03821-.3971-.07074-.31415-3.1767-1.11853-.25189.20044-.27862.28559-.27552.28436-.27258.28326-.26947.282-.26654.28088-.26343.2796-.2605.27844-.2575.27717-.25458.27587-.25165.27466-.2486.27326-.24572.272-.2428.27069-.23993.26923-.237.26794-.23419.26654-.23126.2652-.22834.26373-.22564.26233-.22272.26081-.21991.25933-.2171.25788-.21436.25641-.21161.25482-.20874.25335-.206.25177-.20331.25019-.20062.24859-.19788.24707-.19519.24543-.19244.24377-2.27356.20227-1.74133-1.47565-.01673-.31024-.01806-.31292-.01935-.316-.02063-.31879-.02191-.32159-.02326-.32453-.0246-.32733-.026-.33026-.0274-.333-.02875-.33594-.03027-.33868-.03168-.34149-.03314-.34436-.03467-.34723-.03613-.35-.03772-.35272-.03931-.35559-.04077-.35834-.04242-.36108-.04407-.36395-.04565-.36664-.0473-.36939-.049-.37219-.05072-.37494-.05243-.37768-.05408-.38038-.05591-.38311-.05762-.38581-.05951-.38855-.06128-.39123-.063-.39392-.0904-.309L338.97705,9.616l-.23883.21582-.26007.30249-.2572.30115-.25421.2998-.25122.2984-.24836.29706-.24536.29565-.24249.29419-.23962.29279-.23676.29132-.23383.28992-.231.28833-.22815.28692-.22535.2854-.22253.28382-.21973.28228-.21691.28071-.21418.27917-.21136.27753-.20868.27594-.20593.27429-.20319.27264-.2005.27106-.19788.26929-.19506.26764-.19251.26593-.18982.26422-.18719.26251-.18464.26068-.18194.259-.17932.25715-.17688.25543-2.25623.3446-1.83056-1.36346-.03626-.30847-.03772-.31134-.03912-.314-.04053-.31683-.04211-.31964-.04358-.32239-.04511-.3252-.04669-.32794-.04828-.33069-.04974-.33337-.05145-.33612-.05311-.33887-.05474-.34161-.05634-.34436-.058-.347-.05982-.34967-.06152-.35242-.06323-.355-.06507-.35779-.06677-.36041-.0686-.3631-.07044-.36566-.07226-.36841-.07416-.371-.07593-.37359-.07794-.37623-.07984-.3789-.08178-.38141-.08374-.384-.0857-.38666-.0877-.38916-.10956-.30274-3.29181-.7116-.22485.23053-.2406.31811-.2378.31671-.23486.31519-.232.31366-.22918.312-.22638.31048-.22351.30878-.22077.30737-.21795.30561-.21515.304-.21247.30237-.20971.3006-.207.299-.20429.29724-.20154.29553-.19891.29383-.19617.292-.1936.29028-.19086.28851-.18835.28669-.18561.28491-.1831.28308-.18055.28119-.17791.27936-.17542.27752-.17285.27564-.17035.27368-.16785.27179-.16534.26984-.1629.26794-.1604.266-2.23023.4856-1.9126-1.24573-.05548-.3056-.05713-.30835-.05877-.311-.06043-.31366-.06207-.3164-.06372-.319-.06549-.32166-.06714-.32434-.06891-.327-.07062-.32965-.07245-.33221-.07428-.33484-.07605-.33752-.07788-.34009-.07977-.34265L310.988,9l-.0835-.34784-.08545-.3504-.08728-.35291-.08935-.35559-.09131-.358-.0932-.36054-.09528-.36315-.09729-.3656-.0993-.36811-.10138-.3706-.10346-.37311-.10559-.37555-.10766-.378-.10981-.38043-.112-.38294-.12835-.29529-3.33-.50348-.2099.24415-.22015.3327-.21735.331-.21466.32929-.21185.32757-.20911.32581-.20648.32409-.20368.32221-.20105.32056-.19836.31872-.19568.3169-.193.31506-.19037.31323-.18781.31134-.18518.30945-.18261.30762-.18006.30572-.17743.30377-.175.30188-.17242.29987-.16992.298-.16742.296-.165.294-.16247.292-.16.29-.15765.288-.15522.286-.15277.28388-.15045.2818-.14813.27972-.14569.27765-.14343.27545-2.19532.62476-1.987-1.12323-.07464-.30151-.07636-.30414-.07818-.30677-.08-.30926-.08179-.31183-.08362-.31439-.08557-.317-.0874-.31946-.08923-.322-.09125-.32458-.09314-.327-.09515-.32959-.09711-.332-.09906-.33453-.10114-.337-.10314-.33947-.10517-.34192-.10724-.34436-.10937-.34674-.11145-.34919-.11353-.35162-.11572-.354-.11786-.35645-.12006-.3587-.12225-.36121-.12445-.36352-.12671-.36585-.1289-.36816-.13117-.37049-.13354-.3728-.13581-.37512-.1466-.28668-3.35505-.2934-.19421.25684-.19879.34582-.19617.344-.19354.34216-.19092.34021-.18823.33832-.18567.33636-.18311.33441-.18048.33252-.178.33057-.17536.32855-.17291.32654-.17035.32458-.16785.32258-.1654.32043-.16291.31848-.16052.31641-.15808.31439-.15564.31219-.15326.31019-.15088.308-.14849.30591-.14618.30377-.1438.3017-.14154.29943-.13929.29731-.1369.295-.1347.293-.13245.29071-.13025.28845-.128.2862-.12579.284-2.15186.76129-2.05352-.99621-.09345-.29627-.09534-.2987-.09723-.30121-.0993-.30365-.1012-.306-.10321-.30853-.10528-.311-.1073-.31335-.10932-.31574-.11145-.31824-.11352-.32055-.1156-.32288-.11774-.32532-.11987-.32757-.12213-.33-.12421-.33233-.12646-.33466-.12867-.33691-.13086-.33918-.13324-.34155-.13537-.34375-.1377-.34607-.14007-.34833-.14228-.35052-.14465-.35278-.147-.355-.14948-.35711-.15173-.35938-.15424-.36157L276.2439.72479,276.08478.359l-.16431-.2768L272.55359,0l-.17767.26849-.1767.35767-.1742.35565-.17169.35352-.16913.35156-.16662.34949-.16419.34735-.16174.34527-.15924.3432-.1568.341-.15448.33893-.152.33679-.1496.33459-.14733.33246-.145.33026-.14258.32813-.14032.3258-.138.32367-.13574.32141-.13343.31916-.13128.31689-.129.31464-.12683.31231-.12463.31012-.12244.30774-.1203.30542-.11817.30316-.11608.30073-.1139.29846-.11187.29608-.10974.2937-.10773.29132-2.09973.895-2.11213-.86542-.11181-.28973-.11395-.29212-.116-.29449-.1181-.29682-.12024-.29913-.12238-.30145-.12463-.30371-.12677-.306-.12885-.30823-.13128-.31061-.13337-.3128-.13568-.315-.138-.31726-.1402-.31945-.14251-.32166-.1449-.32385-.14716-.326-.14959-.32825-.15192-.33032-.15436-.33252-.15674-.33459-.15918-.33674-.16162-.3388-.16406-.34088-.1665-.343-.169-.34509-.17157-.347-.17407-.34912-.17664-.35113-.17914-.35315-.18176-.35517L259.1.09442l-3.36542.1294L255.57416.503l-.15393.368-.15149.36585-.14911.36371-.14673.36145-.14441.35919-.142.35705-.13971.35474-.13739.35248-.13513.35028-.13281.348-.13062.34558-.12835.34339-.1261.341-.1239.33874-.12171.33637-.11963.334-.11743.33161-.11523.32928-.11322.32691-.11109.32452-.109.32214-.10687.31971-.105.31726-.1029.31488-.10083.31238-.09888.30993-.09692.3075-.095.305-.093.30255-.09119.3-.08917.29755L249.806,11.869l-2.16223-.731-.12982-.28217-.132-.28442-.13428-.28662-.13654-.28876-.13873-.291-.14111-.29322-.14343-.29528-.1457-.29743-.14807-.29962-.15039-.30164-.15283-.30377-.15515-.30591-.15759-.308-.16-.31-.16253-.31213-.16492-.31409-.16736-.31616-.16986-.31811-.17242-.3202-.17493-.32208-.17737-.32416-.18-.326-.18256-.328-.18512-.32995-.18774-.33179-.19037-.3338-.19306-.33557-.19561-.33753-.19831-.33935-.201-.34125-.20367-.343-.19775-.25409-3.35059.34052-.14258.28869-.13055.377-.12824.37469-.126.37225-.12378.37-.12152.36755-.11933.3653-.11718.36279-.115.36041-.11286.358-.11072.35559-.10858.35315-.10657.3507-.10443.34833-.10241.34583-.10041.34338-.09832.34088-.09638.33838-.09442.33582-.09241.33343-.09045.33081-.08856.32831-.08673.32581-.08472.32324-.08289.32068-.08111.31805-.07923.31561-.07745.313-.07556.31031-.07391.30773-.07209.30518-.07037.30255-1.971,1.151-2.20392-.59375-.14721-.2735-.14966-.27557-.152-.27765-.1543-.27966-.15686-.28168-.15918-.28369-.16162-.28571-.16412-.28778-.16657-.28967-.16913-.29169-.17157-.29358-.174-.29553-.17669-.29748-.17914-.29938-.1817-.30127-.18433-.303-.18695-.305-.18951-.30689-.19214-.30865-.19477-.31049-.19745-.31238-.20013-.31414-.20276-.31586-.2055-.31763-.20826-.31946-.21093-.3211-.21375-.32288-.21637-.32452-.21924-.32624-.222-.32794-.22486-.32953-.21319-.24115-3.32263.55018-.12427.29705-.10651.38446-.10455.382-.1023.37946-.10028.377-.0982.37451-.09619.372-.09418.36951-.09216.36694-.09009.36444-.0882.36182-.08624.35925-.08429.35681-.0824.35407-.08044.35162-.07861.34894-.07685.34637-.07489.34382-.07306.34112-.07135.3385-.06952.33588-.06781.33325-.066.33057-.06427.32794-.06256.32525-.061.32258-.05927.31988-.05761.3172-.056.31451-.05439.31177-.05279.30908-.05121.3064-1.89484,1.27246-2.23687-.45422-.16413-.26367-.16662-.26569-.16907-.26746-.17169-.26947-.17414-.27124-.17669-.27319-.17932-.275-.18189-.2768-.18439-.27862-.18707-.28052-.1897-.28223-.19226-.28406-.195-.28576-.19758-.28754-.20031-.28924-.203-.291-.20568-.2926-.20838-.29444-.21112-.296-.21393-.29766-.21667-.29932-.21942-.301-.22229-.3025-.225-.30419-.22778-.30567-.23072-.30725-.23358-.30878-.23639-.3103-.23932-.31189-.24212-.31329L209.335,6.6745l-.228-.22736-3.28155.75782-.10529.3042-.08221.39044-.08026.38775-.07837.3852-.07642.3825-.07446.37989-.07263.37732-.07074.37463-.06891.372-.06714.36938-.06525.3667-.06347.364-.06177.36126-.06.35859-.05822.356-.05658.35327-.05481.35047-.05329.34784-.05151.345-.04987.34234-.04834.33954-.04669.33686-.04516.334-.04358.3313-.04206.32855-.04052.32581-.03907.323-.03766.32013-.03607.31744-.03473.31458-.03332.31182-.03186.309L202.1839,19.7547l-2.26087-.31287-.18042-.25287-.183-.25463-.18555-.25635-.18823-.25812L198.995,18.16l-.19355-.26147-.19616-.26325-.19892-.26483-.20154-.26654-.20428-.26813-.207-.26977-.20972-.27142-.21252-.273-.21527-.2746-.21808-.27612-.22083-.27759-.22369-.27918-.2265-.28076-.22931-.28216-.23218-.28363-.235-.2851-.238-.28656-.24079-.288-.24365-.28937-.24658-.29077-.24957-.29218-.2525-.29352-.25538-.29486-.25836-.2962-.26141-.29749-.26434-.29876-.24183-.21253-3.22747.96228-.086.31024-.05756.39478-.05572.392-.054.38934-.05225.3866-.05053.38385-.04877.38116-.04712.3783-.04541.37561-.04376.3728-.04212.37012-.04046.36719-.03894.3645-.03736.36169-.03582.359-.03424.35608-.03278.35321-.03125.35046-.02972.3476-.02839.34479-.02685.342-.02545.33905-.02411.3363-.02271.33337-.0213.33051-.02.32764-.01874.32483-.01739.322-.01611.319-.015.31616-.01361.31329-.01245.31031-1.7204,1.5-2.27612-.17029-.19592-.24115-.19861-.24262-.20136-.2442-.204-.24579-.20678-.24731-.20954-.24884-.21234-.25037-.21509-.25189-.21789-.25336-.22077-.25482-.22351-.25623-.22638-.25762-.22924-.25916-.23212-.2605-.235-.2619-.23779-.26318-.24078-.26459-.24366-.26593-.24658-.26721-.24951-.2685-.25244-.26983-.25549-.271-.25837-.27234-.26141-.2735-.2644-.27478-.26734-.27588-.27038-.2771-.27344-.27819-.27649-.27942-.27954-.28052-.28259-.28155-.2547-.197-3.16071,1.163-.06628.31506-.03266.39759-.03106.39483-.02942.39191-.0279.3891-.0263.38635-.02478.38342-.02326.3805-.02173.37774-.02026.37488-.0188.37195-.01739.369-.01593.36621-.01459.36334-.01318.36041-.01185.35755-.01043.35461-.00922.35175-.00787.34881-.00659.34589-.00544.343-.00409.34-.00293.3371-.00177.33417-.00048.33117.00055.32831.0017.32532.00293.32239.00391.31946.00494.31646.00605.31348.00708.31055-1.62281,1.605-2.28228-.0271-.2107-.22827-.21344-.22968-.21631-.23108-.219-.23254-.22192-.23389-.2248-.23517-.2276-.23657-.23053-.23779-.23333-.23914-.23633-.24048-.2392-.24176-.24213-.24292-.245-.2442-.24805-.24542-.25091-.24658-.25391-.2478-.2569-.249-.25988-.25006-.26288-.25122-.26587-.25232-.269-.25336-.27185-.25445-.275-.25562-.278-.25653-.28113-.25763-.28418-.25854-.28729-.25958-.29035-.26056-.29345-.26142-.29664-.26239-.29968-.2633-.2666-.18054-3.08136,1.35919-.04645.3186-.00763.39887-.00616.39593-.00482.393-.0033.39007-.002.38721-.00067.38428.00073.38122.002.37836.00324.37537.00464.37237.00586.36951.007.36645.00824.36353.00946.36053.01069.35761.01178.35455.01293.35156.014.34864.01508.34558.01623.34265.01722.3396.01825.33667.01922.33356.02027.33062.02124.32764.02215.32452.02307.3216.024.31854.02484.31555.0257.31244.02655.30951-1.51886,1.70374-2.27948.11633-.22455-.2146-.22748-.21582-.23035-.2171-.23321-.21827-.23621-.21948-.23907-.22064-.24207-.22174-.245-.2229-.24793-.22406-.25091-.2251-.25391-.22626-.2569-.22723-.25988-.22839-.26288-.22931-.266-.23041-.26892-.23132-.272-.23236-.27508-.23322-.27814-.23419-.28119-.23517-.2843-.236-.28742-.23694-.29046-.23779-.29358-.23859-.29675-.23944-.29987-.24024-.303-.241-.30615-.24182-.30933-.2425-.31244-.24328-.31573-.2439-.27728-.16351-2.99006,1.55-.0263.32086.01739.39856.01874.39557.0199.39251.02118.38953.02228.38654.02349.38354.02466.38043.0257.37745.02691.37445.028.37139.029.36841.03.36524.03113.3623.0321.35925.033.35621.03406.35308.035.3501.03589.34711.03681.34393.03765.34094.03852.33783.03937.33484.04016.33179.041.32867.04181.32557.04242.32257.04321.31945.044.31647.04468.3133.04522.3103.046.30719-1.40893,1.79577-2.26764.25922-.23767-.20013-.24054-.20105-.24347-.20221-.24652-.20325-.24951-.20416-.25245-.2052-.25549-.20612-.25848-.20709-.26154-.208-.26453-.20892-.26763-.20984-.27063-.21076-.27375-.21154-.27673-.21234-.27991-.2132-.283-.21405-.28607-.21472-.28918-.21558-.2923-.21631-.29541-.217-.29858-.21771-.3017-.21838-.30487-.21906-.308-.21972-.31115-.22034-.31433-.221-.31757-.2215-.32074-.222-.32385-.2226-.32721-.2232-.33032-.22363-.28711-.1457L128.35486,39.077l-.00611.32183.04236.39667.04352.39362.0445.39056.04559.38745.04651.38434.04754.38123.04853.37817.04937.37512.0503.372.05127.3689.052.36578.053.36267.05377.35968.05463.35645.05536.35345.05615.35034.05688.34717.05756.34412.05835.34094.059.33795.05969.33478.06024.33167.061.32861.06152.32544.06213.32239.06263.31921.06317.3161.06378.313.06415.30994.06469.30676.06513.30377-1.29334,1.88068-2.24694.40112-.2497-.18481-.25275-.18567-.25573-.18647-.25873-.18731-.26184-.18811-.26483-.18891-.26795-.18969-.27093-.19049-.27417-.19117-.2771-.19189-.28022-.19263-.28338-.1933-.28644-.194-.28961-.19458-.29273-.19519-.29583-.19586-.299-.19635-.30207-.197-.3053-.19751L120.94586,48.7l-.31158-.19855-.31482-.199-.31806-.19946-.32116-.19995-.32434-.20038-.32764-.20069-.33081-.20117-.33411-.20147-.33722-.20185-.34051-.20215-.34375-.20251-.29566-.12738-2.77209,1.91247.014.32172.06726.39325.06811.39008.069.387.06977.38379.07061.38067.07135.37751.07209.37439.07293.37127.07355.36811.07428.365.075.36181.07556.35865.07624.35552.07684.35242.07751.34918.078.34613.07855.3429.0791.33984.07965.33667.08008.3335.08057.33038.081.32721.08136.3241.08185.321.08221.31781.08258.3147.083.31152.08325.30841.08356.3053.0838.30213.08411.299-1.17279,1.95825-2.21735.54132-.26074-.1687-.26392-.16937-.2669-.17005-.27-.17077-.27314-.17127-.27618-.17193-.27924-.17249-.28247-.1731-.28552-.17358L110.544,60.113l-.29181-.17462-.29492-.17511-.2981-.1756-.30121-.176-.30444-.17645-.30756-.17682-.31073-.17725-.31384-.17761-.31714-.17792-.32031-.17828-.32343-.17859-.32672-.17883-.32989-.17914-.33313-.17932-.33631-.17963-.33954-.17981-.34277-.17993-.34607-.18017-.3493-.18024-.35254-.18036-.35578-.18048-.303-.10864-2.6466,2.08282.0343.32013.0918.38825.09247.38507.09307.38183.09375.37873.09443.37548.0949.37232.09546.36908.09607.3659.0965.3628.09711.35962.09753.35638.098.35321.09839.35.09888.34686.09918.34369.09961.34051.1.33728.10022.33423.10065.331.10083.32782.1012.3247.10138.32148.10168.31829.10181.31525.102.312.10217.30884.1023.30573.10247.30261.10254.29944.10266.29626.10267.29315-1.04743,2.028-2.179.6795-.27094-.152-.274-.15246-.277-.153-.28028-.15344-.28326-.15381-.2865-.15423-.28955-.15461-.29273-.155-.29589-.15534-.299-.15564-.30224-.156-.30536-.15625-.30847-.1565-.31171-.1568-.31488-.15692-.318-.15717-.32123-.15747-.32446-.15747-.32758-.15771-.33093-.15784-.334-.15784-.33734-.158-.34051-.15808-.34363-.15808-.34692-.15808-.35022-.15814-.35346-.15808-.35663-.15808-.35992-.1579-.36316-.158-.36639-.15784-.30933-.08923L87.9823,69.2384l.05432.31733.116.38171.11651.37842.11689.3753.11731.372.11779.3689.11811.36554.11847.36249.11883.35913.11914.356.11945.35273.11969.34961.12.34637.12018.34314.12048.34.12055.33679.12079.33362.121.33032.12109.32727.1211.324.12127.32087.12134.31768.1214.31452.1214.31128.1214.30822.12146.305.1214.30188.12127.29864.12128.29553.12109.29242.121.28931.12085.28607-.918,2.08978-2.13208.815-.27991-.13477-.283-.13495-.28613-.13525-.28931-.1355-.29242-.13574-.29559-.136-.29871-.136-.30188-.13635-.305-.13647-.30823-.1366-.3114-.1366-.31457-.13678-.31769-.13684-.32092-.1369-.32416-.1369-.32727-.1369-.33051-.1369-.33362-.13691-.33691-.13678-.34009-.13671-.34338-.13666-.3465-.13642-.34973-.13641-.353-.13623-.3562-.136-.35937-.13574-.36273-.13568-.36585-.13531-.36908-.13508-.37243-.13476-.37555-.13452-.31427-.0697-2.36469,2.39807.0741.31329.13977.37372.13995.37042.14026.36719.1405.364.14069.36066.14081.35748.14105.35425.14111.35107.14124.34778.14136.34454.14141.34137.14148.3382.14154.3349.14148.33173.14161.32855.14141.32532.14148.3222.14142.319.14124.31574.14117.31262.14105.30938.14087.30634.14075.303.14056.3.14026.29669.14008.29364.13983.29053.13959.28735.13928.28424.13892.28107.13861.278-.785,2.14319-2.07666.94733-.28778-.11688-.29089-.117-.29413-.11694-.29718-.11713-.30041-.11706-.30353-.11713-.3067-.11713-.30982-.11712-.313-.117-.31622-.117-.31934-.11688-.32251-.11676-.32568-.11658-.32886-.11646-.33209-.11627-.3352-.11609-.33844-.1159-.34162-.11566-.34485-.11536-.34808-.115-.35114-.11481-.35443-.1145-.3576-.11414-.36084-.11371-.364-.1134-.36725-.113-.37043-.11255-.37365-.11213-.3769-.11163-.38006-.11108-.3833-.11066-.31806-.04986-2.20941,2.5418.09363.30811.1629.36414.163.36084.163.35766.16309.35443.163.3512.163.34784.163.34479.1629.34143.16285.33825.16265.335.1626.33178.16242.32862.16229.32537.16211.32215.16186.319.16163.31586.16137.31262.16113.30945.16083.30627.16053.30316.16021.29993.15985.29681.15943.29364.15912.29059.15869.28729.15826.28431.15772.28112.15741.278.1568.275.15637.27179.15576.26868-.64887,2.18829L66.94238,106.698l-.29455-.09857-.29773-.09845-.30084-.09833-.304-.09821-.30713-.098-.31024-.09784-.31342-.09765-.31659-.09742-.3197-.0971-.32294-.09687-.32605-.09655L63.2,105.52673l-.3324-.09594-.33557-.09552L62.1933,105.24l-.34186-.09479-.345-.09442-.34827-.09393-.35132-.09345-.35455-.09308-.35773-.09246-.3609-.092-.36413-.0915-.36719-.09088-.37042-.09033-.3736-.08966-.37683-.08905-.37994-.08844-.38318-.08777-.38629-.087-.38947-.08643-.32056-.02978-2.04547,2.67559.1128.30152.18548.35321.1853.35.18518.34674.185.34339.18469.34027.18464.337.18426.33381.184.33056.18372.32733.18347.32416.183.321.18274.31774.18244.31458.18194.31134.18158.30823.18116.305.18066.30194.18024.29871.17974.29559.17933.29248.17865.28931.17816.28613.17761.28314.177.27991.17645.27685.17572.27375.17518.27069.17449.26758.17377.26452.173.26148.17236.25842-.51013,2.22473-1.94153,1.20008-.30017-.0799-.30335-.07959-.30639-.07922-.30957-.07886-.31262-.07861-.31586-.07813-.319-.0777-.322-.07739-.3252-.07684-.32837-.07642-.33148-.07593-.33459-.07537-.33771-.07489-.34088-.07435-.34406-.07367-.34717-.07324-.35022-.07251-.35345-.0719-.35657-.07122-.35968-.07062-.36291-.06989-.366-.06909-.36908-.06842-.37219-.06769-.37537-.06683-.37854-.066-.38165-.06525-.38471-.06439-.38787-.06348-.39106-.06262-.39416-.06177-.32178-.00958-1.87341,2.79871.13153.29388.20727.34088.207.33759.20655.33441.20611.33118.20581.32794.20539.32477.20483.32153.20447.31836.20386.31518.20343.312.20294.30883.20227.30567.20178.30249.20117.29938.20056.29614.2.29309.19934.28992.19867.28686.19793.28369.19727.28058.19647.27759.1958.27441.195.27137.19427.26824.19342.26526.19263.26215.19177.25922.19092.2561.19007.25305.1892.25006.18824.24707-.36951,2.25238-1.8623,1.31964-.30463-.06085-.30768-.06042-.31079-.05982-.314-.05932-.31695-.05878-.32007-.05811-.32318-.05761-.32636-.057-.32934-.05627-.33252-.05561-.33557-.055-.33869-.05426-.34173-.05347-.345-.05279-.3479-.052-.35108-.05121-.35418-.05042-.35718-.04956-.36035-.0487-.36347-.04786-.36645-.04693-.36963-.04608-.37268-.04511-.37573-.04407-.37879-.04315-.3819-.04223-.385-.04114-.388-.0401-.39111-.039-.39423-.038-.39721-.03686-.32178.01068-1.694,2.91077.14978.28509.22821.32715.22778.32391.22712.3208.22662.31763.22589.31433.22534.31122.22467.30811.22406.30487.22327.30175.22259.29853.22187.29547.22113.29242.22033.28918.21967.28614.21869.28295.218.28.2171.27686.21625.2738.21539.27069.21448.2677.21356.26465.21264.2616.21167.25854.2107.25556.20971.25256.20868.24957.20771.24659.20666.24359.20557.24066.2044.23773.20344.2348-.22736,2.27112-1.77576,1.434-.3078-.04163-.31091-.04089-.314-.04028-.317-.03949-.32-.0387-.32312-.038-.32617-.03717-.32923-.03638-.33227-.03546-.33533-.03461-.33838-.03381-.34143-.03284-.34448-.032L35.741,146.657l-.35053-.03-.35357-.029-.35663-.02808-.35968-.027-.36267-.02594-.36573-.025-.36871-.02386-.37177-.02271-.37475-.0216-.37775-.02045-.38086-.01929-.38379-.01813-.38678-.0169-.38977-.01563-.39276-.0144-.39581-.01312-.39874-.01184-.3205.03082-1.50787,3.01141.16729.27509.24842.31225.24756.309.24688.30591.246.30267.24524.29957.24444.2965.24359.29334.24268.29022.24182.28711.24091.28406.24.28094.23907.2779.2381.27478.23706.27179.23614.26873.23511.26569.23407.26263.233.25971.232.25665.23089.25372.22974.25068.22864.24768.22748.24481.22631.24182.22516.23889.224.236.22272.233.22156.23016.22027.22723.219.22443.21771.2215-.08429,2.28094-1.68219,1.54267-.30988-.02222-.31286-.0213-.3158-.02051-.31885-.01947-.32183-.01856-.32489-.01757-.32789-.01661-.33081-.01556-.33386-.01459-.33685-.01355-.33978-.01245-.34284-.01135-.34582-.01025-.34876-.00916-.35174-.008-.35468-.00684-.35773-.00556-.36059-.00445-.36365-.00317-.36652-.0019-.3695-.00067-.3725.00067-.37531.002-.37835.00329-.38129.0047-.38415.006-.38709.00745-.39.00885-.39289.01025-.39581.01184-.39874.01319-.31787.05084-1.3158,3.10022.1842.264.26746.29608.2666.29278.2655.2898.26459.28668.26361.28363.26252.28052.26153.27747.26044.27435.2594.27142.2583.26831.25714.26532.256.26233.25488.25934.25373.25635.25256.25335.25128.25037.25012.2475.24884.24457.24762.24151.24628.23871.24512.23584.24371.23285.24243.23.241.22717.23975.22431.2384.22143.23694.21863.23547.21576.23413.213.23267.21015.23126.20745.05908,2.28174-1.58215,1.64521-.31055-.00275-.3136-.00159-.31646-.00061-.3194.00061-.32245.00165-.32532.00287-.32824.004-.33118.00519-.33411.0064-.337.00769-.34.00885-.34283.0102-.34577.01147-.34863.01276-.35156.01416-.35443.01544-.3573.01691-.36023.01819-.3631.01971-.366.02106-.36877.02258-.37164.024-.37458.02551-.37738.0271-.38019.02856-.38305.03016-.38587.03173-.38861.03333-.39148.03491-.39435.03656-.39709.03827-.31409.07074-1.11859,3.17664.2005.25195.28552.27856.28443.27558.28326.27252.282.26953.28082.26648.27966.26349.27838.2605.27723.2575.27587.25458.2746.25159.27332.2486.272.24578.27063.2428.26929.23993.26794.237.26654.23413.26514.23126.26373.2284.26233.22558.2608.22272.2594.22.25788.2171.25641.21436.25482.21155.25329.2088.25177.206.25025.20331.24859.20062.247.19788.24549.19513.24371.1925.20233,2.2735-1.47565,1.74133-.31024.01679-.313.01806-.31591.01935-.31879.02057-.32166.022-.32446.02326-.32739.0246-.3302.02594-.33307.0274-.33588.02881-.33868.03027-.34155.03168-.34436.03314-.34717.03461-.35.03619-.35272.03772-.35559.03925-.35834.04083-.36114.04242-.364.044-.36663.04571-.36939.0473-.37219.049-.37488.05072-.37768.05242-.38044.05408-.38311.05591-.38581.05762-.38849.05951-.39123.06128-.39392.063-.309.09034L9.616,196.43506l.21582.23883.30255.26013.30115.2572.29974.25415.29846.25129.297.24835.29565.24536.29425.24249.29273.23956.29132.23676.28992.23389.28839.231.28686.22815.2854.22535.28382.22247.28228.21979.28077.21692.27917.21417.27747.21136.27594.20868.27435.20593.27264.20319.271.2005.26935.19782.26764.19513.26593.19244.26422.18982.26251.18725.26068.18457.259.182.25721.17938.25537.17682.3446,2.25629-1.3634,1.83056-.30847.03626-.31134.03766-.31409.03912-.31677.04059-.31971.04211-.32238.04358-.3252.04511-.32788.04669-.33069.04822-.33343.0498-.33606.05146-.33893.053-.34155.05475-.34436.0564-.347.058-.34967.05976-.35242.06158-.3551.06323-.35773.065-.36047.06677-.363.0686-.36572.07044-.36835.07226-.371.07416-.3736.076-.37622.07794-.37884.07984-.38141.08172-.38409.08374-.3866.08576-.38916.0877-.3028.10956-.71154,3.29181.23046.22485.31818.24061.31671.23773.31519.23486.3136.23206.31207.22918.31042.22638.30884.22351.30731.22077.30561.218.304.21515.30231.21241.30066.20977.29889.20691.29724.20435.29553.20154.29382.19885.29206.19623.29028.1936.28845.19086.28675.18829.28491.18567.283.1831.28125.18055.27936.17791.27746.17542.27564.17285.27368.17035.27185.16785.26984.16534.26794.16284.266.1604.4856,2.23029-1.24579,1.91254-.3056.05554-.30829.05713-.311.05877-.31372.06043-.31634.062-.319.06378-.32172.06543-.32428.0672-.32709.06891-.32959.07062-.33227.07245-.33484.07428-.33746.076-.34009.07788-.34265.07971-.34534.08166-.34778.0835-.3504.08539-.353.08734-.35553.08935-.358.09125-.3606.09326-.36309.09528-.3656.09723-.36811.09936-.3706.10138-.37311.10346-.37555.10559-.378.10766-.38049.10981-.38288.112-.29529.12835-.50348,3.33.24408.21.33271.22015.331.21735.32929.21466.32751.21185.32587.20911.324.20642.32227.20368.32056.20105.31872.19842.3169.19568.315.193.31329.19037.31134.18781.30945.18524.30762.18255.30566.18006.30377.17749.30194.17492.29987.17249.298.16986.296.16748.294.16492.292.16247.29.1601.288.15765.28595.15522.28388.15277.2818.15045.27972.14813.27765.14569.27551.14337.6247,2.19538L11.92322,239.337l-.30152.0747-.30407.07636-.30677.07818-.30926.08-.31183.08179-.31439.08368-.317.08557-.31946.08734-.322.08929-.32458.09125-.327.09314-.32953.09515-.332.097-.33453.09912-.337.10114-.33947.10308-.34192.10523-.34436.10724-.34674.10937-.34925.11145-.35156.11353-.354.11572-.35645.11786-.35876.12-.36115.12232-.36352.12445-.36585.12665-.36816.129-.37049.13116-.37286.13348-.37512.13587-.28662.1466-.2934,3.35505.25678.19415.34588.19885.344.19617.34216.19354.34015.19092.33832.18823.33636.18567.33447.183.33252.18049.33057.178.32855.17542.32654.17285.32452.17035.32257.16791.3205.1654.31848.16291.31635.16052.31439.15808.31225.15558.31012.15332.308.15088.306.1485.30377.14611.30163.14386.29944.14154.29731.13923.2951.137.293.1347.29065.13245.28851.13019.2862.12805.284.12579.76129,2.1518-.99621,2.05359-.29633.09344-.29864.09528-.30121.09729-.30365.0993-.30609.10114-.30847.10327-.311.10528-.31335.1073-.3158.10932-.31818.11145-.32055.11352-.32288.1156-.32532.11774-.32763.11987-.33.12207-.33233.12427-.33466.12647-.33691.1286-.33924.13092-.34149.13318-.34381.13537-.34607.13776-.34833.14-.35052.14234-.35272.14465-.355.147-.35717.14942-.35932.15179-.36157.15424-.36371.15661-.36584.15912-.2768.16431L0,262.85858l.26849.17761.35767.17676.35559.1742.35358.17163.35156.16919.34943.16662.34741.16419.34527.16168.34314.1593.34107.1568.33893.15448.33679.152.33459.1496L4.756,265.14l.33026.145.32807.14258.32586.14038.32361.13794.32141.1358.31916.13343.31689.13128.31464.129.31237.12683.31006.12457.30774.1225.30542.1203.30316.11817.30079.116.29846.1139.29608.11193.2937.10975.29132.10772.8949,2.09973-.86536,2.11213-.28973.11181-.29212.11389-.29455.116-.29682.1181-.29907.12018-.30145.12244-.30377.12463-.306.12671-.30829.12891-.31055.13122-.3128.13337-.315.13574-.31726.13794-.31945.14026-.32172.14251-.32379.1449-.32605.14716-.32825.14953-.33026.152-.33252.15436-.33459.15674-.33674.15911-.3388.16169-.34094.16406-.343.1665-.345.169-.34711.17157-.34912.17407-.35107.17664-.35321.17914-.35511.1817-.266.18139.1294,3.36542L.503,279.838l.368.15387.36585.15155.36364.14911.36146.14673.35925.14441.357.142.35474.13977.35248.13739.35028.13513.348.13281.34564.13062.34332.12829.34107.12616.33874.1239.33637.12171.334.11957.33167.11743.32928.11529.32691.11322.32452.11109.32208.10895.31977.10693.31726.105.31488.10284.31231.10089.31.09882.3075.097.305.0949.30249.09308.3.09119.29755.08917,1.0249,2.03937-.731,2.16229-.28217.12976-.28448.13208-.28656.13422L9.996,288.301l-.291.13879-.29322.14105-.29528.1435-.29743.14569-.29962.14807-.30164.15033-.30377.15289-.306.15515-.30792.15753-.31006.16-.31207.16247-.31415.16492-.3161.16742-.31818.16986-.32013.17242-.32214.17487-.3241.17743-.326.18-.32806.1825-.32989.18518-.33185.18774-.33374.19037-.33563.19306-.33747.19561-.33941.19831-.34119.201-.343.20367-.25409.19775.34052,3.35059.28863.14258.377.13049.37463.1283.37231.12591.37.12384.36749.12152.3653.11933.36279.11719.36047.11492.358.11292.35553.11072.35321.10858.3507.1065.34833.1045.34583.10241.34332.10035.34088.09838.33838.09638.33588.09436.33337.09241.33081.09051.32837.08856.32575.08667.3233.08472.32068.08295.31805.08105.31555.07929.313.07739.31037.07562.30773.07392.30518.07208.30255.07037,1.151,1.971-.59381,2.20392-.27344.14722-.27557.14965-.27765.152-.27966.15436-.28168.1568-.28375.15924-.28571.16162-.28772.16412-.28967.16657-.29169.16913-.29358.17151-.29553.17407-.29748.17663-.29938.1792-.30127.1817-.3031.18433-.30505.187-.30689.18945-.30859.1922-.31055.19477-.31238.19745-.31408.20007-.31586.20282-.31769.2055-.3194.2082-.3211.211-.32288.21369-.32458.21643-.32624.21924-.32788.222-.32959.22486-.24115.21325.55017,3.32263.29706.12421.38452.10657.382.10449.37946.10236.37695.10028.37457.0982.372.09619.36951.09412.36688.09216.36444.09009.36182.0882.35931.0863.35675.08429.35413.0824.35162.08044.34894.07862.34637.07678.34382.075.34112.07306.3385.07129.33588.06958.33325.06775.33057.066.32788.06433.32531.06256.32251.06091.32.05927.3172.05767.31451.056.31177.05433.30908.05279.30634.05121,1.27252,1.8949-.45422,2.23687-.26367.16413-.26569.16662-.26752.16907-.26941.17169-.2713.17414-.27319.17669-.275.17932-.2768.18189-.27868.18439-.28046.18707-.28223.18964-.28412.19232-.28576.19494-.28754.19757-.28918.20038-.291.20294-.29266.20569-.29438.20844-.296.21112-.29766.21393-.29932.21667-.301.21942-.30256.22229-.30413.225-.30567.22778-.30725.23072-.30878.23352-.31036.23645-.31183.23925-.31329.24219-.31482.245-.2273.22809.75776,3.28155.30426.10523.39038.08221.38775.08026.3852.07837.38256.07642.37989.07452.37725.07263.3747.07074.372.06891.36938.06708.36664.06531.364.06347.36132.06177.35859.05994.356.05829.35321.05657.35047.05481.34784.05323.345.05157.34234.04987.3396.04834.33686.04669.334.04517.3313.04357.32855.042.32575.04058.323.03907.32019.03759.31738.03614.31464.03467.31176.03338.309.03186,1.389,1.81122-.31287,2.26093-.25287.18042-.25463.18292-.25635.18561-.25812.18817-.25989.19092-.26153.19354-.26319.19616-.26483.19892-.2666.20154-.26813.20428-.26971.207-.27142.20972-.273.21252-.27454.21527-.27612.21808-.27765.22083-.27918.22369-.2807.2265-.28216.22931-.28363.23218-.28516.235-.2865.23791-.288.24078-.28937.24372-.29083.24658-.29212.24951-.29352.2525-.29492.25544-.29614.25836-.29749.26135-.29882.2644-.21247.24183.96222,3.22741.3103.086.39478.05762.392.05572.38934.054.38654.05219.38385.05053.38116.04877.37836.04712.37555.04541.37286.04382.37006.04206.36725.04052.3645.03894.36169.03736.35889.03576.35608.0343.35327.03278.35046.03125.34754.02972.34485.02833.34192.02691.33911.02545.33624.024.33343.02277.33051.0213.32764.02.32483.01874.322.01733.319.01617.3161.0149.31329.01361.31037.01251,1.49993,1.7204-.17028,2.27612-.24109.19592-.24262.19855-.24426.20136-.24573.2041-.24737.20672-.24884.20954-.25037.2124-.25189.21509-.2533.21789-.25482.22077-.25623.22351-.25769.22638-.25909.22925-.2605.23205-.2619.23505-.26324.23779-.26459.24078-.26593.24366-.26715.24658-.2685.24951-.26983.25244-.27106.25549-.27228.25837-.27356.26135-.27472.2644-.27588.2674-.27716.27038-.27819.27344-.27942.27649-.28046.27954-.28162.28253-.1969.25476,1.163,3.16071.31506.06622.39759.03272.39483.03106.39191.02942.3891.02784.38629.02636.38342.02472.38056.02326.37774.02173.37482.02032.372.01874.36908.01739.36621.01593.36334.01465.36041.01318.35749.01185.35467.01043.35169.00922.34887.00787.34583.00659.343.00544.34.00409.33716.00286.33411.00177.33123.00055.32825-.00061.32538-.00171.32233-.00286.31952-.00391.3164-.005.31348-.006.31055-.007,1.605,1.62281-.0271,2.28228-.22821.2107-.22974.21344-.23108.21624-.23248.21906-.23389.222-.23517.2248-.23657.2276-.23785.23053-.23914.23333-.24048.23633-.2417.2392-.24292.24213-.2442.245-.24542.248-.24658.25091-.2478.25391-.249.2569-.25006.25988-.25122.26288-.25232.26587-.25342.26892-.25445.27191-.25562.275-.25653.278-.25757.28107-.25854.28424-.25958.28723-.26056.29041-.26148.29346-.26239.29656-.26324.29969-.18061.26666,1.35926,3.08136.3186.04645.39887.00763.39593.00616.393.00476.39007.00336.38721.002.38422.00061.38128-.00067.3783-.002.37536-.0033.37238-.00458.36951-.00585.36651-.00708.36347-.00824.36053-.00946.35761-.01063.35455-.01177.35162-.013.34858-.014.34564-.01514.34265-.01617.33954-.01728.33667-.01818.33362-.01929.33062-.0202.32758-.02124.32458-.02216.32154-.02307.31854-.024.31555-.02484.3125-.0257.30945-.02661,1.7038,1.51886.11627,2.27954-.21454.22455-.21588.22748-.2171.23035-.21821.23321-.21948.23621-.22064.23907-.22174.24207-.2229.245-.22412.24787-.2251.251-.2262.25385-.22729.257-.22833.25982-.22931.26294-.23041.266-.23132.26893-.23236.272-.23322.27508-.23425.27814-.23511.28113-.236.28436-.23694.28742-.23773.29046-.23859.29358-.23944.29676-.24024.29986-.241.303-.24182.30615-.24256.30927-.24322.3125-.244.31567-.16345.27734,1.55,2.99006.32086.02624.3985-.01739.39557-.01868.39257-.0199.38953-.02118.38654-.02234.38354-.02349.38043-.0246.37745-.0257.37438-.02691.37146-.028.36835-.029.3653-.03009.3623-.03107.35925-.0321.35621-.03308.35308-.034.3501-.035.347-.03589.344-.03681.34088-.03765.33789-.03852.33484-.03937.33173-.04022.32867-.041.32563-.04175.32257-.04248.31945-.04321.31647-.04389.3133-.04468.31024-.04522.30719-.046,1.79583,1.40893.25916,2.2677-.20007.23761-.20111.24054-.20215.24353-.20325.24652-.20416.24945-.2052.25245-.20612.25555-.20709.25849-.20807.26153-.20886.26453-.2099.26757-.2107.27069-.21154.27375-.21241.27673-.21319.27991-.214.283-.21478.28607-.21552.28918-.21637.2923-.21692.29541-.21777.29852-.21832.30176-.21906.30481-.21979.308-.22027.31115-.221.31427-.2215.31763-.2221.32074-.22254.32385-.2232.32715-.2237.33038-.14563.28711,1.73468,2.88672.3219.00611.39661-.04242.39368-.04346.3905-.04456.38745-.04553.38434-.04657.38122-.04748.37824-.04853.37506-.04937.372-.05036.369-.05121.36578-.05206.36267-.053.35968-.05371.35645-.05463.35345-.05535.35034-.05616.34717-.05688.34412-.05756.34094-.05835.33795-.059.33478-.05969.3316-.0603.32862-.06092.32544-.06152.32238-.06213.31922-.06263.31616-.06317.313-.06378.30988-.06421.30682-.06469.30371-.06507,1.88068,1.29334.40112,2.247-.18475.24969-.18567.25275-.18647.25567-.18731.25879-.18811.26178-.189.26489-.18969.26795-.19043.27093-.19123.27411-.19189.27716-.19257.28022-.1933.28338-.194.28644-.19464.28961-.19513.29273-.19586.29583-.19641.299-.1969.30206-.19751.3053-.19812.30853-.19849.31158-.199.31482-.19946.318-.2.32116-.20032.3244-.20075.32764-.20111.33081-.20147.334-.20191.33728-.20215.34051-.20245.34369-.12738.29566,1.91247,2.77215.32166-.014.39325-.06732.39007-.06811.387-.069.38379-.06971.38073-.07061.37751-.07135.37439-.07215.37127-.07287.36811-.07361.36492-.07428.36182-.075.35871-.07562.35546-.07618.35242-.0769.34924-.07745.34613-.078.3429-.07855.33978-.07916.33667-.07959.33356-.08008.33038-.08063.32721-.081.324-.08142.321-.08179.31781-.08221.3147-.08265.31152-.08288.30835-.08331.3053-.0835.30219-.0838.299-.08411,1.95819,1.17273.54138,2.21735-.1687.2608-.16943.26386-.17.267-.17071.27-.17133.27307-.17187.27619-.17255.2793-.173.28241-.17364.28552-.17413.28869-.17463.29181-.175.29493-.1756.29809-.176.30121-.17645.30438-.17688.30762-.17719.31067-.17767.3139-.17792.31714-.17828.32031-.17853.32343-.17889.32672-.17908.32983-.17938.33319-.17957.33625-.17981.3396-.17993.34277-.18017.34607-.18024.34924-.18042.35254-.18048.35578-.10858.3031,2.08282,2.64654.32013-.03424.38825-.0918.38507-.09246.38183-.09314.37866-.09375.37549-.09436.37232-.09491.36914-.09546.3659-.09607.36274-.09656.35961-.097.35639-.09753.35327-.098.35-.09839.34686-.09888.34363-.09924.34051-.09955.33734-.1.33423-.10022.331-.10058.32776-.10089.3247-.10114.32147-.10138.31836-.10168.31519-.10181.31207-.102.30878-.10223.30579-.1023.30255-.10241.29943-.1026.29633-.1026.29309-.10266,2.028,1.04742.6795,2.17895-.152.27094-.15246.274-.153.277-.15338.28022-.15387.28332-.15423.2865-.15461.28949-.155.29279-.15527.29583-.1557.299-.15594.30218-.15625.30536-.1565.30853-.1568.31165-.157.31488-.15717.31811-.15741.32123-.15753.32446-.15765.32758-.15784.33087-.1579.334-.158.33728-.15808.34051-.15808.34369-.15814.34693-.15814.35021-.158.35346-.15808.35663-.158.35992-.158.3631-.15778.36646-.08929.30932,2.24487,2.51056.31732-.05432.38172-.116.37848-.11651.3753-.117.372-.11731.36884-.11773.3656-.11811.36242-.11853.3592-.11877.356-.11914.35273-.11945.34961-.11975.34637-.11993.34314-.12018.34-.12048.33679-.12055.33355-.12079.33039-.121.32721-.12109.324-.12116.32087-.12127.31768-.12134.31452-.1214.31128-.1214.30816-.1214.305-.1214.30188-.1214.2987-.12127.29553-.12128.29236-.12116.28931-.121.28607-.12079,2.08978.918.81507,2.132-.13477.27991-.13495.283-.13525.28613-.1355.28931-.1358.29236-.13593.29559-.13611.29877-.13629.30182-.13647.30505-.1366.30823-.13666.3114-.13678.31451-.13684.31775-.1369.32092-.1369.3241-.1369.32733-.13684.33051-.13691.33362-.13678.33691-.13671.34009-.13666.34332-.13648.3465-.13635.34979-.13623.35291-.136.35626-.13574.35937-.13562.36267-.13531.36585-.13508.36914-.13476.37237-.13452.37555-.06977.31433,2.39814,2.36469.31329-.07416.37372-.13971.37036-.14.36725-.1402.364-.1405.36066-.14069.35748-.14081.35425-.14105.351-.14111.34784-.14124.34454-.14142.34131-.14142.3382-.14141.3349-.14154.33179-.14154.32855-.14155.32532-.14141.3222-.14154.31891-.14136.3158-.14124.31262-.14117.30938-.141.30628-.14087.3031-.14075.29993-.14056.29675-.14032.29364-.14.29047-.13989.28735-.13953.2843-.13928.281-.13892.278-.13861,2.14319.785.94733,2.0766-.11682.28778-.117.29095-.117.29407-.11713.29724-.11707.30042-.11706.30352-.11713.30664-.11712.30988-.117.313-.117.31616-.11682.31934-.11676.32251-.11664.32574-.1164.32886-.11633.332-.11609.33526-.11584.33844-.11566.34162-.11536.34479-.11511.34808-.11481.3512-.11444.35443-.11414.35754-.11371.3609-.1134.364-.113.36724-.11261.37043-.11207.37365-.11163.37683-.11114.38013-.1106.38324-.04993.31812,2.54187,2.20941.308-.09363.3642-.1629.36084-.163.35766-.163.35443-.163.35114-.163.3479-.16309.34472-.1629.3415-.1629.33819-.16285.33509-.16272.33172-.16259.32861-.16242.32538-.16229.32221-.162.319-.16186.31579-.16169.31263-.16131.30944-.16113.30634-.16089.30316-.16053.29993-.16021.29681-.15979.29364-.15949.29053-.15906.28735-.15869.28424-.15826.28119-.15778.278-.15735.2749-.15679.27179-.15638.26874-.15582,2.18829.64893,1.07587,2.01306-.09863.29455-.09839.29767-.09833.30091-.09827.304-.098.30713-.09784.3103-.09765.31342-.09736.31659-.09716.3197-.09681.32294-.09661.32605-.09626.32922-.09594.3324-.09558.33551-.09522.33868-.09485.34192-.09436.345-.09393.34827-.09351.35138-.093.35455-.09252.35773-.092.3609-.09144.36407-.09094.36725-.09027.37042-.08972.3736-.089.37683-.0885.37994-.08771.38318-.087.38629-.08637.38947-.02978.32056,2.67559,2.04547.30152-.11286.35315-.18542.35-.1853.3468-.18525.34339-.18493.34027-.18476.337-.18457.33381-.18426.33056-.184.32733-.18372.3241-.18347.321-.183.31781-.1828.31458-.18238.31134-.18194.30817-.18164.305-.18109.30188-.18073.29877-.18024.29559-.17975.29242-.17926.28931-.17865.28613-.17822.28314-.17755.27991-.17706.27691-.17639.27369-.17579.27075-.1751.26758-.1745.26452-.17377.26142-.1731.25842-.17236,2.22473.51019,1.20007,1.94153-.07983.30011-.07959.30335-.07928.30645-.07886.30951-.07855.31269-.07813.31579-.07776.319-.07733.32208-.07684.3252-.07648.32837-.07587.33142-.07544.33459-.07482.33777-.07435.34088-.07373.34406-.07318.34711-.07251.35028-.0719.35345-.07122.35657-.07062.35968-.06989.36285-.06909.366-.06842.36914-.06769.37219-.06683.37537-.0661.37848-.06519.38165-.06439.38477-.06354.38787-.06262.39106-.06171.3941-.00958.32184,2.79871,1.87341.29382-.13153.34088-.20727.33765-.207.33441-.20655.33118-.20617.32794-.20575.32477-.20539.32153-.20489.31836-.20441.31518-.20386.312-.20343.30883-.20294.30567-.20227.30249-.20178.29938-.20117.29614-.20063.29309-.2.28992-.19934.2868-.19861.28369-.19793.28064-.19727.27759-.19653.27441-.1958.2713-.195.26825-.19427.26532-.19342.26215-.19269.25915-.19177.25611-.19086.25311-.19006.25-.18921.24713-.18824,2.25238.36951,1.31964,1.86231-.06085.30462-.06042.30768-.05988.31079-.05926.3139-.05878.317-.05817.32013-.05755.32318-.057.32636-.05627.32934-.05561.33252-.055.33551-.0542.33869-.05353.34179-.05279.34491-.05194.348-.05121.351-.05042.35418-.04956.35724-.0487.36035-.04792.36347-.04693.36645-.046.36963-.04511.37262-.04413.37573-.04315.37885-.04217.3819-.04114.385-.0401.388-.03906.39111-.03791.39417-.03686.39721.01062.32184,2.91083,1.694.285-.14972.32721-.22827.32391-.22772.3208-.22711.31757-.22663.31439-.22589.31122-.2254.308-.22461.30488-.22406.30175-.22327.29859-.22265.29547-.22181.29236-.22113.28924-.22039.28607-.21961.283-.21875.28-.218.2768-.2171.2738-.21625.27075-.21545.26764-.21442.26471-.21356.26154-.21264.25854-.21167.25562-.21076.25256-.20965.24957-.20874.24659-.20771.24359-.2066.24066-.20557.23767-.20447.2348-.20343,2.27118.22736,1.434,1.77582-.04169.3078-.04083.31091-.04028.31391-.03949.317-.0387.32007-.038.32312-.03717.32617-.03638.32923-.03546.33227-.03467.33533-.03375.33838-.0329.34137-.03192.34448-.03107.34753-.03.35053-.029.35358-.02814.35662-.027.35968-.026.36267-.0249.36573-.02392.36865-.02265.37176-.0216.37482-.02051.37775-.01929.38086-.01813.38379-.01684.38672-.01563.38977-.01446.39282-.01312.39575-.01185.3988.03083.3205,3.01147,1.50781.27509-.16723.31219-.24842.309-.24762.30585-.24688.30273-.246.29957-.2453.2965-.24444.29328-.24353.29028-.24268.287-.24188.28412-.24091.28088-.23993.27789-.23913.27485-.238.27172-.23706.2688-.23614.26569-.23511.26263-.23413.25965-.233.25671-.23194.25366-.23089.25067-.2298.24775-.22864.24481-.22748.24182-.22625.23889-.22516.236-.224.233-.22278.23022-.2215.22723-.22033.22443-.21894.2215-.21777,2.28088.08429,1.54273,1.68225-.02228.30982-.0213.31286-.02045.31586-.01947.31879-.01856.32189-.01757.32489-.01661.32789-.01562.33081-.01453.33386-.01355.33679-.01251.33984-.01129.34284-.01032.34582-.00909.34876-.008.35174-.00684.35468-.00562.35773-.00439.36059-.00324.36365-.00189.36652-.00061.3695.00061.37244.002.37537.00335.37829.00464.38129.006.38421.00745.387.00891.39007.01025.39283.01178.39587.01325.39868.05084.31793,3.10022,1.3158.264-.1842.296-.26752.29284-.26654.2898-.26557.28662-.26458.28363-.26355.28058-.26258.2774-.26147.27442-.26044.27136-.2594.26831-.2583.26538-.25714.26233-.256.25934-.25488.25635-.25373.25335-.25256.25037-.25128.24744-.25012.24456-.24884.24158-.24762.23871-.24634.23578-.24506.23285-.24377.23-.24237.22717-.24109.22425-.23969.22149-.2384.21857-.23694.21582-.23547.21295-.23413.21021-.23273.20745-.2312,2.28174-.05908,1.64514,1.58209-.00268.31061-.00165.31353-.00055.31653.00055.3194.00171.32245.00281.32532.00409.32824.00512.33118.00641.33411.00769.337.00891.34.01014.34283.01153.34577.01276.34863.01416.3515.01544.35449.01685.3573.01825.36023.01971.3631.021.36591.02264.36883.024.37165.02551.37451.0271.37738.02862.38019.03009.38305.03174.38587.03333.38867.03491.39148.03662.39428.03821.3971.0708.31415,3.17664,1.11853.25195-.20044.27856-.28559.27558-.28436.27252-.28326.26953-.282.26648-.28088.26343-.27966.26056-.27838.25744-.27723.25458-.27587.25165-.2746.2486-.27326.24572-.272.24286-.27069.23987-.26923.237-.26794.23419-.26654.23126-.2652.2284-.26373.22558-.26233.22272-.2608.21991-.25934.2171-.25788.21442-.25641.21155-.25482.20874-.25335.20605-.25171.20331-.25025.20056-.24859.19788-.24707.19519-.24543.19244-.24377,2.27356-.20227,1.74133,1.47565.01673.31024.01812.313.01935.31591.02057.31879.02191.32159.02326.32453.02466.32733.02594.33026.0274.333.02881.33594.03021.33868.03168.34149.03314.34436.03467.34723.03613.34992.03778.35278.03925.35553.04083.35834.04236.36114.04407.364.04565.36664.0473.36939.049.37219.05072.37494.05243.37768.05414.38038.05585.38311.05768.38581.05945.38855.06127.39123.06311.39392.09034.309,3.24066.91681.23883-.21582.26013-.30255.25714-.30115.25421-.29974.25122-.2984.24836-.29706.24542-.29565.24249-.29419.23956-.29279.23676-.29132.23389-.28992.231-.28833.22809-.28692.22534-.2854.22254-.28382.21973-.28228.21691-.2807.21424-.27918.21136-.27753.20862-.27594.20593-.27429.20319-.27264.20056-.27106.19782-.26935.19506-.26758.19251-.26593.18982-.26422.18719-.26251.18463-.26074.182-.259.17932-.25714.17688-.25544,2.25629-.3446,1.8305,1.36346.03632.30841.03766.3114.03912.314.04059.31683.042.31965.04358.32238.04511.3252.04669.32794.04828.33069.04974.33337.05152.33612.053.33887.05475.34155.0564.34436.058.347.05982.34961.06152.35248.06329.355.065.35779.06677.36041.0686.363.07044.36572.07226.36841.07416.371.076.37359.07788.37623.07983.3789.08179.38141.08374.384.08576.38666.08764.3891.10956.3028,3.29181.7116.22485-.23052.2406-.31818.2378-.31665.23486-.31519.232-.31366.22919-.312.22638-.31048.22351-.30884.22077-.30731.218-.30561.21509-.30395.21247-.30237.20971-.3006.207-.29895.20429-.29724.20153-.29553.19892-.29383.19617-.292.1936-.29034.19092-.28845.18829-.28675.18567-.28485.183-.28308.18061-.28119.17785-.27936.17542-.27752.17285-.27564.17035-.27368.16785-.27185.1654-.26978.16284-.26794.1604-.266,2.23029-.4856,1.91254,1.24573.05548.3056.05713.30835.05877.311.06043.31366.06207.3164.06378.319.06543.32166.06714.32434.069.327.07062.32959.07245.33227.07428.33484.076.33753.07789.34.07977.34271.08166.34528.08344.34784.08545.3504.08734.35291.08929.35559.09131.358.09326.36054.09522.36315.09729.36554.09936.36811.10138.37066.1034.373.10559.37555.10766.378.10981.38043.11206.38294.12829.29529,3.33.50348.2099-.24415.22021-.3327.21735-.331.2146-.32929.21191-.32757.209-.32581.20649-.32409.20368-.32221.20105-.32056.19836-.31872.19568-.3169.193-.31506.19037-.31323.18781-.31134.18524-.30945.18255-.30768.18006-.30566.17749-.30377.17492-.30188.17243-.29987.16992-.298.16748-.296.16492-.29395.16247-.292.1601-.29.15759-.288.15528-.286.15277-.28388.15039-.2818.14813-.27972.14575-.27765.14337-.27545,2.19538-.62476,1.98694,1.12323.07464.30152.07636.30413.07818.30671.08.30932.08179.31183.08368.31433.08551.317.0874.31952.08923.322.09125.32458.0932.327.09509.32959.09711.332.09912.33453.10107.337.10315.33953.10523.34192.10718.34436.10937.34674.11145.34919.11353.35162.11572.354.11792.35645.12.3587.12232.36121.12439.36346.12671.36585.129.36822.13116.37049.13348.3728.13581.37512.1466.28662,3.35511.2934.19415-.25678.19879-.34588.19623-.34394.19354-.34216.19086-.34021.18823-.33832.18567-.33636.1831-.33447.18049-.33252.178-.33051.17542-.32855.17285-.32654.17035-.32458.16791-.32257.16534-.3205.1629-.31842.16059-.31641.158-.31439.15564-.31219.15326-.31018.15088-.308.14849-.30591.14618-.30383.1438-.30163.1416-.29944.13923-.29731.137-.295.1347-.293.13239-.29071.13025-.28845.128-.28619.12579-.284,2.15186-.76129,2.05352.99621.09345.29627.09534.2987.09729.30121.09924.30365.1012.306.10327.30854.10528.311.10724.31335.10932.31574.11145.31824.11352.32049.1156.32288.11774.32538.11993.32757.12207.33.12427.33234.1264.33465.12867.33691.13092.33918.13318.34155.13537.34375.1377.34607.14007.34833.14234.35052.14465.35272.147.35505.14942.35711.15179.35938.15418.36157.15661.36365.15918.36584.16431.27686,3.36682.08215.17767-.26849.1767-.35767.17419-.35565.1717-.35352.16913-.35156.16668-.34949.16413-.34735.16174-.34533.15924-.34314.15686-.341.15442-.33893.152-.33685.14966-.33453.14727-.33246.145-.33026.14258-.32813.14038-.3258.13794-.32367.13574-.32141.13349-.31916.13128-.31689.129-.31464.12677-.31231.12463-.31012.1225-.30774.12024-.30542.11817-.30316.11608-.30079.1139-.2984.11187-.29608.10974-.29376.10773-.29126,2.09973-.895,2.11212.86542.11188.28973.11389.29212.116.29449.1181.29682.12024.29913.12238.30145.12463.30371.12677.306.12891.30829.13122.31061.13337.3128.13568.31494.138.31733.14019.31945.14252.32166.1449.32385.14716.326.14959.32825.152.33032.1543.33252.1568.33459.15911.33674.16163.3388.16406.34088.1665.343.16907.34509.17151.347.17407.34912.1767.35113.17907.35315.18177.35517.18139.266,3.36536-.12946.16046-.27911.15393-.368.15149-.36585.14917-.36371.14673-.36145.14435-.35919.142-.35705.13971-.35474.13745-.35248.13513-.35028.13275-.348.13062-.34558.12835-.34338.1261-.341.124-.33874.12171-.33637.11957-.334.11743-.33161.11529-.32934.11322-.32691.111-.32446.109-.32214.10693-.31971.10492-.31726.1029-.31488.10083-.31237.09888-.30994.09692-.30756.095-.30493.09308-.30255.09113-.3.08923-.29754,2.03937-1.025,2.16229.731.12976.28217.132.28442.13428.28656.13654.28882.13879.291.14105.29322.14343.29522.14576.29743.148.29968.15039.30164.15283.30377.15515.30591.15759.308.16.31.16247.31207.16492.31415.16742.31616.1698.31812.17242.32019.17493.32208.17737.32416.18.32605.18256.328.18512.32995.18774.33179.19043.3338.193.33557.19562.33753.19837.33935.20092.34125.20368.343.19775.25409,3.35059-.34052.14258-.28869.13055-.377.1283-.37469.12591-.37225.12378-.37.12152-.36755.11933-.3653.11718-.36279.115-.36041.11292-.358.11066-.35559.10864-.35315.1065-.35077.10444-.34832.10247-.34577.10035-.34338.09832-.34088.09644-.33838.09436-.33582.09241-.33343.09045-.33081.08856-.32837.08673-.32575.08472-.32324.08289-.32068.08111-.31811.07923-.31555.07745-.313.07562-.31031.07385-.3078.07209-.30517.07037-.30249,1.971-1.151,2.20392.59375.14728.2735.14959.27557.152.27765.15436.2796.1568.28168.15918.28375.16168.28571.16412.28772.16657.28967.16907.29169.17157.29357.17407.29554.17663.29748.1792.29938.18164.30127.18439.3031.18689.30505.18951.30689.19214.30865.19483.31049.19745.31238.20007.31408.20276.31592.2055.31763.20826.3194.211.3211.21369.32288.21637.32458.21924.32624.222.32794.22486.32953.21325.24115,3.32263-.55017.12421-.29706.10651-.38446.10455-.382.10229-.37946.10029-.377.09826-.37451.09619-.37195.09412-.36951.09216-.36694.09009-.36444.0882-.36182.08624-.35925.08429-.35681.0824-.35413.08044-.35156.07868-.349.07678-.34637.07489-.34375.07306-.34119.07135-.3385.06952-.33582.06781-.33325.066-.33057.06433-.32794.06256-.32525.06091-.32258.05927-.31988.05767-.31726.056-.31445.05439-.31183.05279-.309.05121-.3064,1.89484-1.27246,2.23687.45422.16413.26367.16662.26563.16913.26752.17163.26947.17414.27124.17675.27319.17926.275.18189.27686.18445.27862.187.28052.1897.28223.19226.28406.195.28576.19757.28754.20032.28924.203.291.20569.29266.20844.29438.21106.296.214.29766.21661.29932.21948.3009.22223.30256.225.30413.22784.30573.23066.30725.23358.30872.23645.31036.23925.31183.24219.31329.245.31482.228.2273,3.28156-.75776.10529-.30419.08221-.39045.08026-.38775.07837-.3852.07642-.3825.07446-.37989.07263-.37732.07074-.37463.069-.37207.06708-.36932.06524-.3667.06354-.364.06171-.36126.06-.35865.05829-.35589.05657-.35327.05481-.35047.05323-.34784.05151-.345.04993-.34234.04828-.3396.04669-.33686.04516-.334.04358-.33136.04206-.32849.04058-.32581.03907-.323.03759-.32019.03608-.31738.03473-.31464.03332-.31176.03186-.309,1.81128-1.38892,2.26086.31281.18042.25293.183.25463.18561.25635.18817.25812.19085.25983.19355.26153.19622.26325.19886.26483.20154.26654.20434.26813.207.26977.20972.27142.21252.273.21527.27454.21814.27612.22077.27765.22375.27918.22644.2807.22937.28222.23212.28363.235.2851.238.28656.24078.288.24366.28937.24658.29077.24957.29218.2525.29352.25538.29486.25836.2962.26141.29749.26434.29876.24189.21253,3.22741-.96228.086-.31024.05756-.39478.05578-.392.054-.38934.05225-.3866.05053-.38385.04877-.38116.04712-.3783.04541-.37561.04376-.37286.04212-.37006.04052-.36719.03894-.36456.03736-.36163.03576-.359.03424-.35608.03278-.35321.03125-.35046.02972-.3476.02839-.34479.02691-.342.02545-.33905.024-.3363.02271-.33337.0213-.33051.02008-.32764.01867-.32483.0174-.322.01611-.319.015-.3161.01361-.31329.01245-.31036,1.7204-1.5,2.27612.17028.196.24115.19855.24262.20136.2442.204.24579.20678.24731.20954.2489.21234.25037.21509.25183.218.25336.22071.25482.22357.25623.22632.25762.22924.25916.23212.2605.235.2619.23785.26318.24078.26459.2436.26593.24658.26721.24957.2685.25244.26983.25543.271.25837.27228.26141.27356.2644.27478.2674.27588.27038.2771.27338.27819.27655.27942.27954.28046.28253.28162.2547.197,3.16071-1.163.06628-.31506.03272-.39765.03106-.39477.02942-.392.02784-.389.0263-.38635.02478-.38342.02326-.3805.02173-.37774.02026-.37482.0188-.372.01739-.369.01593-.36621.01459-.36334.01318-.36041.01184-.35755.0105-.35461.00916-.35175.00787-.34881.00665-.34589.00538-.343.00415-.34.00286-.3371.00177-.33417.00049-.33117-.00055-.32831-.00171-.32532-.00286-.32239-.00391-.31946-.005-.31646-.006-.31348-.00708-.31049,1.6228-1.6051,2.28235.0271.21064.22827.21344.22968.2163.23108.21906.23254.22192.23389.2248.23517.2276.23657.23053.23779.23333.23914.23633.24048.2392.24176.24212.24292.245.2442.248.24542.25091.24658.25391.24781.2569.249.25988.25006.26288.25122.26587.25232.269.25342.27191.25445.275.25556.278.25653.28113.25763.28418.25854.28729.25958.29035.26056.29345.26142.29663.26239.29969.2633.2666.18054,3.08142-1.35919.04639-.3186.00763-.39887.00622-.39593.00476-.393.00336-.39007.002-.38721.00061-.38428-.00067-.38122-.002-.37836-.0033-.3753-.00458-.37244-.00585-.36951-.00708-.36645-.00824-.36353-.00946-.36053-.01063-.35761-.01177-.35455-.013-.35156-.014-.34857-.01514-.34565-.01617-.34265-.01728-.3396-.01818-.33667-.01929-.33355-.02027-.33063-.02117-.32764-.02222-.32452-.02307-.3216-.024-.31848-.02478-.31561-.02576-.31244-.02655-.30951,1.51886-1.70373,2.27954-.11634.22449.2146.22754.21582.23029.2171.23327.21827.23615.21948.23907.22064.24207.22174.245.2229.24793.22406.25091.2251.25391.22626.2569.22723.25988.22839.26288.22931.266.23041.269.23132.272.23236.275.23322.27814.23425.28119.23511.2843.236.28742.23694.29052.23779.29358.23859.29669.23944.29987.24024.303.241.30621.24182.30927.24256.31244.24322.31573.2439.27728.16351,2.99005-1.55.02631-.32086-.01739-.39856-.01874-.39557-.0199-.39251-.02118-.38953-.02228-.38654-.02349-.38354-.02466-.38043-.0257-.37744-.02692-.37439-.02795-.37146-.029-.36835-.03-.3653-.03113-.3623-.032-.35925-.03308-.35621-.03406-.35308-.03491-.3501-.036-.34711-.03681-.34393-.03766-.34088-.03851-.33789-.03937-.33484-.04016-.33179-.041-.32867-.04175-.32557-.04248-.32257-.04321-.31945-.04395-.31647-.04462-.31329-.04528-.31025-.046-.30719,1.40893-1.79583,2.2677-.25922.23761.20013.24054.20105.24347.20221.24652.20325.24951.20416.25245.2052.25549.20612.25848.20709.26154.208.26452.20892.26764.20984.27063.21076.27375.21154.27679.21241.27991.21313.2829.214.28607.21478.28918.21552.29236.21631.29535.217.29858.21771.3017.21838.30487.21906.308.21973.31116.22033.31433.221.31757.2215.32074.222.32391.2226.32715.2232.33038.22364.287.14569,2.88672-1.73474.00617-.32184-.04242-.39667-.04346-.39362-.04456-.3905-.04553-.38745-.04657-.3844-.04748-.38123-.04853-.37817-.04937-.37512-.05036-.372-.05121-.3689-.05206-.36578-.053-.36267-.05377-.35968-.05457-.35645-.05542-.35345-.05609-.35034-.05688-.34717-.05762-.34412-.05835-.34094-.059-.338-.05963-.33478-.0603-.33166-.06092-.32862-.06158-.32544-.06207-.32239-.06263-.31921-.06323-.3161-.06372-.31305-.06421-.30994-.06469-.30676-.06507-.30371,1.29328-1.88068,2.247-.40112.24963.18475.25275.18567.25573.18647.25873.18731.26184.18811.26483.189.268.18963.271.19049.27411.19117.2771.192.28028.19257.28332.1933.2865.194.28961.19458.29267.19519.29583.19586.299.19635.30213.197.3053.19751.30847.19806.31158.19855.31482.199.31806.19946.32116.2.3244.20038.32758.20069.33081.20117.33411.20148.33722.20184.34051.20221.34375.20245.29566.12738,2.77209-1.91247-.014-.32172-.06726-.39319-.06811-.39014-.069-.387-.06977-.38379-.07061-.38067-.07129-.37751-.07215-.37439-.07287-.37127-.07361-.36811-.07428-.365-.075-.36181-.07562-.35864-.07624-.35547-.07684-.35248-.07752-.34918-.078-.34613-.07856-.3429-.07909-.33984-.07965-.33667-.08008-.3335-.08057-.33038-.081-.32721-.08142-.3241-.08185-.321-.08221-.31781-.08259-.3147-.08288-.31152-.08331-.30841-.08356-.3053-.08374-.30213-.08411-.299,1.17273-1.95825,2.21735-.54132.26074.1687.26392.16944.2669.17.27.17077.27313.17127.27619.17193.2793.17249.28241.1731.28552.17358.28863.17413.29187.17469.29486.175.29816.1756.30115.176.30444.17645.30756.17682.31073.17725.31384.17767.31714.17786.32031.17834.32343.17853.32672.17883.32989.17914.33313.17932.33631.17963.33954.17981.34283.17993.346.18017.3493.18024.35254.18036.35578.18054.3031.10858,2.64654-2.08282-.03424-.32013-.0918-.38825-.09253-.38507-.09307-.38183-.09375-.37873-.09436-.37542-.095-.37238-.09545-.36908-.09607-.3659-.0965-.3628-.09711-.35955-.09747-.35645-.098-.35321-.09839-.35-.09882-.34686-.09924-.34369-.09961-.34051-.1-.33728-.10022-.33423-.10064-.331-.10083-.32782-.1012-.32464-.10138-.32154-.10168-.31829-.10181-.31519-.102-.31207-.10217-.30884-.1023-.30572-.10247-.30262-.10254-.29944-.1026-.29626-.10273-.29315,1.04743-2.028,2.179-.6795.27088.152.274.15246.27709.153.28022.15338.28332.15387.28644.15417.28955.15461.29279.15509.29583.15527.299.15564.30218.156.30536.15625.30853.15649.31165.1568.31488.15692.31805.15723.32129.15741.3244.15753.32764.15765.33087.15784.334.15784.33734.158.34051.15808.34363.15808.347.15808.35021.15814.3534.15808.35669.15808.35986.158.36316.1579.36639.15784.30933.08923,2.51056-2.24487-.05432-.31732-.116-.38172-.11645-.37842-.117-.3753-.11731-.372-.11773-.3689-.11817-.36554-.11847-.36248-.11883-.35914-.11914-.356-.11945-.35273-.11969-.34961-.11993-.34637-.12024-.34314-.12042-.34-.12061-.33679-.12079-.33355-.12091-.33039-.12109-.32721-.12116-.324-.12127-.32086-.12134-.31769-.1214-.31452-.1214-.31128-.1214-.30822-.1214-.30494-.1214-.30194-.12127-.29864-.12128-.29553-.12116-.29242-.121-.28931-.12085-.28607.918-2.08978,2.13208-.815.27991.13477.283.135.28619.13525.28925.1355.29242.13574.29559.136.29877.13611.30182.13629.30505.13647.30817.1366.3114.13666.31457.13672.31769.13684.32092.1369.32416.1369.32727.1369.33051.1369.33368.13691.33691.13678.34.13671.34338.13666.3465.13642.34979.13641.3529.13623.35621.136.35943.1358.36267.13562.36585.13531.36914.13508.37237.13476.37555.13452.31427.0697,2.36475-2.39807-.07416-.31329-.13977-.37372-.13995-.37036-.14026-.36725-.1405-.36395-.14063-.36066-.14081-.35748-.14105-.35425-.14117-.351-.14124-.34784-.14136-.34454-.14142-.34137-.14147-.33814-.14155-.335-.14147-.33173-.14155-.32855-.14147-.32532-.14148-.3222-.14136-.319-.14124-.31573-.14123-.31263-.14105-.30938-.14087-.30634-.14075-.303-.1405-.3-.14032-.29669-.14008-.29364-.13983-.29053-.13953-.28735-.13934-.28424-.13892-.281-.13855-.27807.785-2.14319,2.0766-.94733.28778.11688.29095.117.29407.117.29724.11707.30035.11706.30353.11713.3067.11713.30982.11712.313.117.31622.11694.31934.11688.32251.11676.32568.11658.32886.11646.33209.11627.3352.11615.33844.11584.34168.11566.34479.11536.34808.11511.35113.11475.35444.1145.3576.11414.36084.11371.364.1134.36725.113.37043.11254.37365.11213.37689.11163.38007.11108.3833.11066.31812.04987,2.20935-2.54181-.09357-.30811-.163-.36414-.163-.36083-.163-.35767-.16309-.35443-.163-.3512-.163-.34784-.1629-.34472-.163-.3415-.16285-.33825-.16266-.335-.16259-.33179-.16242-.32855-.16229-.32544-.16211-.32215-.16186-.319-.16163-.31585-.16137-.31257-.16114-.30951-.16082-.30627-.16053-.30316-.16021-.29993-.15985-.29681-.15943-.29364-.15906-.29053-.15875-.28735-.1582-.2843-.15778-.28113-.15735-.278-.15686-.275-.15631-.27179-.15582-.26868.64893-2.18829,2.013-1.07587.29461.09864.29767.09838.30091.09833.304.09821.30713.098.31024.09784.31348.09765.31653.09742.31976.09716.32294.09681.326.09655.32929.09632.33234.09594.33557.09552.33868.09528.34192.09485.345.09436.34827.09393.35132.09351.35461.093.35767.09246.361.092.36407.0915.36719.09094.37048.09027.3736.08972.37677.089.37994.08844.38318.08777.38635.087.38947.08637.3205.02978,2.04553-2.67559-.11286-.30152-.18548-.35321-.1853-.35-.18519-.34674-.185-.34339-.1847-.34027-.18457-.337-.18432-.33381-.184-.33056-.18372-.32733-.18341-.32416-.1831-.321-.18274-.31775-.18238-.31458-.18194-.31134-.18164-.30817-.18116-.305-.18066-.30194-.18024-.29871-.17975-.29559-.17932-.29248-.17865-.28931-.17816-.28613-.17761-.28308-.177-.27991-.17639-.27691-.17579-.27375-.17517-.27069-.1745-.26758-.17376-.26452-.173-.26148-.17236-.25842.51019-2.22467,1.94153-1.20013.30011.07989.30335.07959.30645.07922.30951.07892.31269.07855.31579.07813.319.0777.32208.07739.3252.07684.32831.07642.33148.07593.33459.07544.33771.07483.34094.07434.344.07367.34717.07324.35028.07251.35339.0719.35663.07123.35962.07061.36291.06989.366.06909.36908.06842.37225.06769.37531.06683.37854.0661.38165.06519.3847.06439.38794.06348.391.06262.39416.06177.32178.00958,1.87347-2.79871-.13159-.29388-.20728-.34088-.2069-.33759-.20661-.33441-.20611-.33118-.20575-.32794-.20539-.32477-.20489-.32153-.20441-.31836-.20392-.31518-.20343-.312-.20288-.30883-.20233-.30567-.20178-.30249-.20117-.29937-.20057-.29615-.2-.29309-.19934-.28992-.19867-.28686-.19793-.28369-.19727-.28058-.19647-.27759-.1958-.27441-.195-.27136-.19427-.26825-.19343-.26526-.19262-.26215-.19177-.25922-.19092-.2561-.19007-.253-.1892-.25006-.18824-.24707.36951-2.25238,1.86237-1.31964.30456.06085.30774.06042.31073.05982.314.05932.317.05878.32007.05811.32324.05761.32629.057.32941.05627.33246.05561.33557.055.33869.05426.34179.05347.34491.05279.348.052.351.05121.35418.05042.35724.04956.36035.0487.36341.04786.36651.04693.36963.04608.37262.04511.37573.04413.37885.04315.3819.04217.385.04114.38806.0401.39111.03906.39417.03791.39721.03686.32178-.01068,1.694-2.91077-.14978-.28509-.22821-.32715-.22778-.32391-.22712-.3208-.22656-.31763-.226-.31433-.22534-.31122-.22467-.30811-.224-.3048-.22327-.30182-.22265-.29853-.22181-.29547-.22113-.29242-.22039-.28918-.21961-.28613-.21875-.283-.218-.28-.2171-.27686-.21631-.2738-.21539-.27069-.21448-.2677-.21356-.26465-.21258-.2616-.21167-.25854-.21076-.25556-.20965-.25256-.20874-.24957-.20771-.24658-.20666-.2436-.20557-.24066-.20441-.23773-.20343-.2348.22736-2.27112,1.77576-1.434.30786.04163.31091.04089.31391.04028.317.03949.32007.0387.32312.038.32611.03717.32929.03638.33221.03546.33539.03461.33838.03381.34137.0329.34448.03192.34753.03107.35053.03.35351.02905.35669.02808.35962.027.36273.02594.36573.025.36865.02386.37176.02271.37476.0216.37781.02045.3808.01929.38379.01819.38678.01684.38977.01563.39282.0144.39575.01312.3988.01185.3205-.03083,1.50781-3.01141-.16723-.27509-.24842-.31219-.24762-.309-.24688-.30591-.246-.30267-.24524-.29956-.24444-.29651-.24353-.29334-.24268-.29022-.24188-.28711-.24091-.28406-.24-.28088-.23907-.27789-.2381-.27485-.23706-.27179-.23608-.26873-.23517-.26569-.23407-.26263-.233-.25971-.232-.25665-.23089-.25372-.22974-.25068-.22864-.24768-.22748-.24481-.22631-.24182-.22516-.23889-.22394-.236-.22278-.233-.2215-.23016-.22033-.22723-.219-.22443-.21771-.2215.08429-2.28094,1.68225-1.54266.30982.02221.31286.0213.3158.02051.31885.01947.32189.01856.32489.01757.32782.01661.33082.01562.33392.01453.33679.01355.33978.01245.3429.01135.34576.01025.34882.00916.35168.008.35474.00683.35767.00556.36065.00445.36359.00317.36658.0019.3695.00067.37244-.00067.37537-.002.37829-.00329.38129-.0047.38415-.006.38709-.00745.39-.00885.39289-.01025.39581-.01178.39874-.01325.31787-.05084,1.31586-3.10022-.1842-.264-.26752-.296-.26654-.29284-.26557-.2898-.26458-.28668-.26361-.28363-.26252-.28052-.26153-.27746-.26044-.27436-.25934-.27142-.2583-.26831-.2572-.26532-.25592-.26233-.25494-.25934-.25367-.25635-.25256-.25335-.25134-.25037-.25012-.2475-.24884-.24457-.24756-.24151-.24634-.23871-.24506-.23584-.24377-.23285-.24243-.23-.241-.22717-.23969-.22431-.2384-.22143-.23694-.21863-.23553-.21576-.23407-.213-.23273-.21015-.2312-.20745-.05914-2.28174,1.58215-1.64521.31061.00275.31353.00165.31653.00055.3194-.00055.32239-.00171.32538-.00287.32818-.004.33124-.00518.334-.00641.33709-.00769.33991-.00885.34289-.01014.34571-.01153.34863-.01276.35156-.01416.35443-.01544.35736-.01691.36023-.01819.363-.01971.366-.02106.36883-.02258.37165-.024.37451-.02551.37738-.027.38019-.02862.38305-.03009.38587-.0318.38867-.03333.39148-.03491.39428-.03656.3971-.03827.31415-.07074,1.11853-3.17664-.20044-.25195-.28559-.27856-.28442-.27558-.2832-.27252-.282-.26953-.28088-.26648-.27966-.26349-.27838-.2605-.27723-.25744-.27587-.25464-.2746-.25159-.27332-.24859-.272-.24579-.27063-.2428-.26929-.23987-.26788-.23706-.2666-.23413-.26514-.23126-.26373-.2284-.26233-.22558-.2608-.22272-.2594-.22-.25788-.217-.25641-.21442-.25482-.21155-.25329-.2088-.25177-.206-.25025-.20331-.24859-.20056-.247-.19794-.24543-.19513-.24377-.1925-.20227-2.2735,1.47565-1.74133.31018-.01679.313-.01806.316-.01935.31873-.02057.32165-.022.32453-.0232.32733-.02466.33026-.02594.333-.0274.33588-.02881.33874-.03021.34149-.03174.34436-.03314.34717-.03461.35-.03619.35278-.03772.35553-.03925.35834-.04083.36114-.04242.364-.044.36664-.04565.36939-.04736.37219-.049.37494-.05072.37768-.05237.38038-.05414.38311-.05591.38581-.05762.38849-.05944.39123-.06135.394-.063.309-.09034.91681-3.24066-.21582-.23883-.30255-.26013-.30115-.25714-.29974-.25421-.2984-.25128-.29706-.24836-.29565-.24536-.29425-.24249-.29273-.23956-.29132-.23676-.28992-.23389-.28833-.231-.28692-.22809-.2854-.22541-.28382-.22247-.28228-.21979-.28077-.21685-.27911-.21424-.27753-.21136-.27594-.20862-.27429-.206-.2727-.20319-.271-.2005-.26935-.19782-.26758-.19512-.26593-.19245-.26422-.18982-.26251-.18725-.26074-.18457-.259-.182-.25714-.17938-.25544-.17682-.3446-2.25629,1.36346-1.8305.30841-.03632.31134-.03766.31409-.03912.31683-.04059.31965-.04205.32238-.04364.3252-.04511.32794-.04669.33069-.04822.33337-.0498.33612-.05145.33887-.053.34155-.05475.34436-.0564.347-.058.34961-.05976.35242-.06158.3551-.06323.35779-.065.36041-.06677.363-.0686.36572-.07044.36835-.07226.371-.07416.37359-.076.37623-.07794.3789-.07984.38141-.08172.384-.08374.3866-.08576.38916-.0877.3028-.10956.7116-3.29181-.23052-.22485-.31818-.2406-.31671-.23774-.31519-.23486-.3136-.23206-.312-.22918-.31048-.22632-.30884-.22357-.30731-.22071-.30561-.218-.30395-.21515-.30237-.2124-.3006-.20972-.29895-.207-.29724-.20435-.29553-.20154-.29383-.19885-.292-.19623-.29034-.19354-.28845-.19092-.28675-.18829-.28485-.18567-.28308-.1831-.28125-.18055-.2793-.17791-.27752-.17536-.27564-.17291-.27368-.17035-.27185-.16785-.26984-.16534-.26794-.16284-.26593-.1604-.48566-2.23029,1.24579-1.91253.3056-.05555.30835-.05713.311-.05877.31366-.06043.3164-.062.319-.06378.32166-.06543.32434-.0672.327-.06891.32959-.07062.33227-.07245.33484-.07428.33753-.07605.34-.07788.34265-.07971.34534-.08166.34784-.0835.3504-.08539.35291-.08734.35559-.08935.358-.09125.36054-.09326.36309-.09528.3656-.09723.36811-.09936.37066-.10138.373-.10346.37555-.10559.378-.10766.38049-.10981.38288-.112.29529-.12835.50354-3.33-.24415-.2099-.3327-.22021-.331-.21735-.32935-.21466-.32751-.21185-.32581-.20911-.32409-.20642-.32227-.20368-.3205-.201-.31872-.19837-.3169-.19568-.31506-.19305-.31323-.19037-.31134-.18781-.30951-.18524-.30762-.18255-.30566-.18006-.30377-.17749-.30188-.17492-.29993-.17243-.298-.16992-.296-.16748-.29395-.16492-.29205-.16247-.29-.1601-.288-.15765-.286-.15522-.28388-.15277-.2818-.15045-.27972-.14807-.27765-.14575-.27551-.14337-.6247-2.19538,1.12323-1.98693.30152-.07465.30413-.07636.30671-.07818.30926-.08.31189-.08179.31433-.08368.317-.08557.31952-.08734.322-.08929.32458-.09119.327-.0932.32953-.09515.332-.09705.33453-.09912.337-.10114.33953-.10308.34186-.10523.34436-.10724.3468-.10937.34919-.11145.35162-.11353.354-.11572.35645-.11786.3587-.12.36121-.12232.36346-.12439.36585-.12671.36816-.129.37055-.13117.3728-.13348.37512-.13587.28662-.1466.2934-3.35505-.25678-.19415-.34588-.19885-.34394-.19617-.34216-.19354-.34021-.19086-.33832-.18829-.33636-.18567-.33447-.183-.33252-.18048-.33057-.178-.32855-.17542-.32648-.17285-.32458-.17035-.32257-.16791-.3205-.1654-.31848-.16291-.31635-.16052-.31439-.15808-.31219-.15558-.31018-.15326-.308-.15094-.306-.14843-.30377-.14618-.30163-.14386-.29944-.14154-.29731-.13922-.2951-.137-.29291-.1347-.29071-.13245-.28845-.13019-.28626-.12805-.284-.12579-.76129-2.1518.99621-2.05358.29633-.09339.29864-.09534.30121-.09729.30365-.0993.30609-.10114.30854-.10327.31091-.10528.31341-.1073.31574-.10932.31824-.11139.32049-.11352.32288-.11566.32538-.11774.32757-.11987.33-.12207.33227-.12427.33466-.1264.337-.12867.33918-.13092.34149-.13317.34381-.13538.34607-.13776.34833-.14.35052-.14234.35272-.14465.35505-.147.35711-.14942.35938-.15179.36151-.15424.36371-.15661.36584-.15912.27686-.16431.08215-3.36682ZM46.027,267.53809a56.69289,56.69289,0,1,1,56.65027,56.73547A56.69288,56.69288,0,0,1,46.027,267.53809Zm144.98614,156.859a56.6929,56.6929,0,1,1,.06018-80.17584A56.69289,56.69289,0,0,1,191.01312,424.39709Zm.17517-233.32428a56.69292,56.69292,0,1,1,.06018-80.1759A56.69294,56.69294,0,0,1,191.18829,191.07281Zm76.524,68.12916a8.50394,8.50394,0,1,1-8.51031,8.49755A8.5039,8.5039,0,0,1,267.71228,259.202Zm-.17364,230.18066a56.69292,56.69292,0,1,1,56.73541-56.65033A56.69294,56.69294,0,0,1,267.53864,489.38263ZM344.397,111.0119a56.69292,56.69292,0,1,1-.06024,80.17591A56.69294,56.69294,0,0,1,344.397,111.0119Zm79.94049,313.56037a56.6929,56.6929,0,1,1,.06018-80.17585A56.69285,56.69285,0,0,1,424.33746,424.57227Zm8.31025-100.051a56.69292,56.69292,0,1,1,56.73541-56.65039A56.693,56.693,0,0,1,432.64771,324.5213Z" fill="#a5b5a9" opacity="0.5"/>
    </g>
  </g>
</svg>
