<svg xmlns="http://www.w3.org/2000/svg" width="73.47574" height="73.47574" viewBox="0 0 73.47574 73.47574">
  <title>small cog</title>
  <g id="Layer_2" data-name="Layer 2">
    <g id="motor_gear" data-name="motor gear">
      <path id="_Compound_Path_" data-name="&lt;Compound Path&gt;" d="M69.02634,19.18748l-.27407-.31624-.63454-.08614-.61242-.06519-.58947-.04541-.56605-.02709-.54218-.01014-.51764.00537-.49273.01946-.46752.032-.442.04328-.41613.05306-.39025.06128-.36413.06808-.33805.0734-.31193.07736-.28593.07981-.2601.08078-.23443.08032-.209.07847-.18389.07529-.15926.07061-.135.06462-.1112.05727-.088.04856-.0655.03866-.04361.0275-.02245.015-2.87062,2.06774-3.82224-4.21763,2.33943-2.65389.01712-.02089.03159-.04065.045-.06137.057-.08287.06792-.1051.07755-.128.08589-.15159.09292-.17566.09866-.20033.10294-.22533.10586-.25085.10752-.27679.10755-.30287.10623-.32916.10346-.35579.09937-.3823.09356-.40894.08645-.43558.07779-.46211.06767-.48851.05614-.51458.04308-.54051.0286-.566.01271-.59115L57.68315,7.271l-.0236-.63991-.28774-.30385-1.44653-.93276-.39546-.13673-.59266.24262-.56285.24972L53.841,6.0056l-.50378.25953-.47456.26231-.44559.26345-.417.26317-.38883.2616-.3611.25845-.33388.254-.30736.24822-.28131.24106-.256.23256-.23149.223L49.6323,8.985l-.18483.2-.1628.18675-.14176.17252-.12164.15712-.10262.14073-.08461.12346-.06774.10524-.05191.08612-.0374.06623-.024.04562-.012.02418L47.18887,13.519l-5.419-1.74151.69913-3.468.00443-.02661.007-.05111.00817-.07559.00791-.10029.00626-.12492.00321-.14965-.0014-.17424-.00733-.19859-.01476-.22275L42.459,6.93906l-.0337-.27021L42.38,6.37549l-.05829-.3161-.07263-.33825-.08817-.35975-.10524-.38079-.12343-.40095-.14291-.4204-.1637-.43911L41.44,3.26323l-.20869-.47368-.23287-.48963-.25829-.50451-.28462-.51825-.312-.53093-.34033-.5424-.4011-.11925L37.683,0l-.4109.07931-.3919.50639-.36261.49775-.33413.48784L35.877,2.048l-.27992.46444L35.343,2.9634l-.22957.43649-.206.42088-.18351.40437-.16214.38694-.142.36864-.12313.3494-.10537.32945-.08906.30883-.0739.28749-.06006.26564-.04766.24318-.03643.22027-.02686.1969-.01844.17326-.01156.14917-.006.125-.00191.10053.00075.07606.00192.05145.0018.027.35544,3.51991-5.56376,1.20132-1.1286-3.353-.0094-.02524-.01948-.04773-.03074-.06951-.04324-.0908-.057-.11148-.07214-.13111-.08828-.15016L27.061,8.45823l-.12414-.18555-.14367-.20183-.16435-.21717-.18594-.23139-.20851-.24467L26.00242,7.121l-.25636-.26746-.28145-.27712-.30735-.28559-.33405-.29257L24.462,5.69982,24.07279,5.397l-.41764-.306-.44651-.30754-.47593-.30774-.50562-.30657-.5357-.30372-.56593-.2996-.407.0973-1.531.7863-.31622.27412L18.7851,5.358l-.06519.61242-.04541.58947-.02707.56611-.0102.54219.00541.51756.01946.49274.03206.46758.04326.442.05306.41613.06128.39025.06808.36413.0734.33805.07738.312.07979.28587.08073.26012.08037.2344.07847.209.07529.18389.07061.15926.06462.135.05727.1112.04858.0881.03866.06549.02748.04356.015.02244,2.06774,2.87063-4.21763,3.82224L14.98373,17.5604l-.02089-.01712-.04065-.03159-.06143-.045-.08281-.057-.1051-.06792-.128-.07753-.15151-.08585-.17568-.093-.20033-.09866-.22533-.10294-.25085-.10587-.27677-.10745-.30289-.10761-.32916-.10624-.35579-.10345-.38236-.09935-.40886-.09352-.43558-.08645-.46211-.07779-.48853-.06773-.51458-.05614L9.044,15.82917l-.566-.0286-.59113-.01265-.61581.00473-.63991.02359-.30387.28768-.93276,1.44654-.13673.39546.24262.59266.24972.56285.25548.53327.25953.50378.26231.47456.26347.44565.26315.417.2616.38883.25845.36111.25394.3339.24827.30734.241.28133.23261.256.223.23155.212.20775.2.18481.18675.1628.17246.14178.1572.12168.14071.10256.12346.08461.10524.06774.08612.0519.06623.03741.04556.024.02424.01194L13.519,26.28687l-1.74149,5.41907-3.468-.69919-.02661-.00443-.05109-.007-.07561-.00823-.10029-.00791L7.931,30.973l-.14965-.00321-.17424.0014-.19859.00733-.22275.01476-.24672.02353-.27019.03376-.29336.04528-.31612.05823-.33825.07263-.35975.08817-.38079.10524-.40095.12343-.4204.14291-.43911.1637-.45689.18566-.4737.20863-.48963.23287-.50451.25829-.51823.28468-.53095.312-.54238.34039-.11927.401L0,35.79271l.07931.4109.50639.3919.49775.36261.48784.33413.47674.3065.46443.27986.45094.25414.43649.22956.42088.206.40437.18351.387.1622.36862.142.3494.12313.32947.10543.30881.089.28749.0739.26564.06006.24318.04766.22027.03643.19692.02691.17324.01839.14919.01161.125.006.10053.00191.07606-.00075.05145-.00192.027-.0018,3.51991-.35544,1.20132,5.56376-3.353,1.1286-.02522.00946-.04775.01942-.06951.03074-.0908.04324-.11148.057-.13111.07214-.15016.08828-.16832.10566-.18555.12414-.20182.14373-.21718.16429-.23139.18594-.24467.20851-.25661.232-.26748.2563-.27712.28145-.28557.30741-.29259.334-.29843.36126-.30287.38916-.306.4177-.30754.4465-.30776.47588-.30657.50562-.30372.5357-.2996.56593.0973.407.78632,1.53106.2741.31617.63451.08622.6124.06513.58947.04541.56611.02707.54219.0102.51756-.00541.49274-.01947.46758-.03205.442-.04327.41613-.053.39025-.06128.36414-.068.338-.07346.312-.07732.28587-.0798.2601-.08078.2344-.08037.209-.07847.18391-.07524.15924-.07066.135-.06463.11122-.0572.088-.04863.0655-.03865.04361-.0275.02244-.015,2.87063-2.06774,3.82226,4.21769-2.33944,2.65389-.01713.02083-.03159.04065-.045.06143-.057.08287-.06794.105-.07753.128-.08591.15153-.09292.17566-.09866.20033-.10294.22533-.10585.25091-.10753.27672-.10755.30288-.10624.32916-.10345.35579-.09935.38236-.09356.40893-.08641.43551-.07777.46216-.06775.48848-.05614.51458-.04308.54051-.0286.566-.01269.59121.00473.6158.02363.63984.28768.30387,1.44654.93276.39548.13679.59266-.24263.56283-.24977.53329-.25543.50376-.25958.47456-.26231.44559-.26345.417-.26317.38885-.26154.36109-.25851.3339-.25394.30736-.24822.28131-.24106.256-.23261.23156-.223.20774-.212.18481-.2.1628-.18675.14178-.17246.12162-.15718.10262-.14073.08461-.12347.06774-.10523.0519-.08612.03741-.06623.024-.04557.01194-.02423,1.45217-3.22607,5.41907,1.74149-.69917,3.468-.00444.02661-.007.051-.00821.07567-.00793.10023-.00626.12492-.00321.14965.0014.17424.00733.19859.01478.22281.02351.24666.0337.27021.04536.2934.05821.31606.07263.33825.08817.35975.10524.38079.12343.40095.14291.4204.16372.43917.18558.45685.20871.47374.23287.48962.25827.50446.28468.51823.312.531.34041.54243.401.11927,1.71906.08453.4109-.07931.3919-.50639.36261-.49775.33413-.48784.3065-.47675.27986-.46442.25414-.45094.22956-.43649.206-.42088.18351-.40437.16214-.38694.142-.36858.12313-.3494.10541-.32953.089-.30881.0739-.28749.06006-.26564.04766-.24318.03643-.22027.02686-.1969.01844-.17326.01161-.14919.006-.125.00189-.10059-.00075-.07606-.00192-.05145-.00178-.0269-.35546-3.52,5.56376-1.20132,1.1286,3.353.00948.02528.0194.04769.03076.06957.04324.0908.057.11141.07214.13112.08828.15016.10566.16832.12414.18555.14367.20183.16435.21716.186.23146.20849.24461.232.25661.2563.26748.28147.27717.30739.28552.334.29259.36128.29848.38916.30288.41762.30592.44658.30758.47586.3077.50562.30657.53572.30378.56591.29954.407-.0973,1.53106-.78632.31619-.27405.08614-.63454.06519-.61242.04541-.58947.02709-.56605.0102-.5422L54.8331,65.29l-.01947-.49273-.032-.46752-.04327-.442-.05307-.41619-.06128-.39025-.068-.36415-.07346-.338-.07736-.31193-.07981-.28593-.08073-.26012-.08037-.23441-.07847-.209-.07524-.18391-.07066-.15924-.06461-.13494-.05728-.11126-.04857-.088-.03865-.0655-.0275-.04361-.015-.02245-2.06772-2.87056,4.21767-3.82232L58.492,55.9154l.02087.01706.04065.03159.06143.045.08287.057.105.06794.128.07753.15153.08591.17566.09292.20033.09866.22533.10294.25093.1059.2767.10748.30288.10755.32916.10623.35579.10346.38236.09935.40888.09358.43558.08645.46211.07779.48851.06767.51458.05614.54051.04308.566.0286.59115.01271.61581-.00473.63991-.0236.30385-.28774.93276-1.44653.13673-.39546-.24255-.59262-.24979-.56289-.25543-.53329-.25958-.50376-.26229-.4745-.26347-.44565-.26317-.417-.26154-.38884-.25851-.36109-.25394-.3339-.2482-.3073-.24108-.28137-.23261-.256-.22294-.23151-.21205-.20773-.2-.18487-.18675-.1628-.17246-.14178-.15718-.12162-.14073-.10262-.12347-.08461L63.405,48.7663l-.08612-.05191-.06623-.0374-.04557-.024L63.1828,48.641l-3.22607-1.45217,1.74151-5.419,3.468.69913.02667.00441.05105.007.07559.00817.10029.00791.12494.00632.14965.00321.17422-.00146.19859-.00733L66.29,42.4825l.24672-.02353.27021-.0337.29342-.0453.316-.05827.33825-.07263.35975-.08817.38079-.10524.401-.12337.42038-.143.43911-.1637.45691-.1856.47368-.20869.48968-.23289.50446-.25827.51825-.28462.53093-.312.5424-.34033.1193-.40112.08453-1.71906-.07931-.4109-.50639-.3919-.49775-.36261-.48784-.33413-.47673-.30644-.46444-.27992-.45094-.25414-.43647-.22951-.4209-.206-.40437-.18351-.38694-.16214-.36858-.142-.34946-.12311-.32945-.10537-.30883-.08906-.28747-.07384-.26566-.06012L66.711,33.9206l-.22027-.03643-.1969-.02686-.17324-.01839-.14919-.01161-.125-.006-.10053-.00191-.07606.00075-.05143.002-.027.00174-3.51991.35544-1.20132-5.56376,3.353-1.1286.0253-.00942.04767-.01946.06957-.03076.0908-.04324.11141-.057.13112-.07214.15016-.08828.16832-.10566.18555-.12414.20183-.14367.21718-.16429.23144-.186.24461-.20849.25663-.23192.26746-.25636.27712-.28145.28559-.30735.29259-.334.29841-.36132.30293-.38918.30592-.41762.30759-.44652.30769-.47592.30657-.50562.30374-.53564.29958-.566-.0973-.407ZM40.31783,44.44913l-1.7686.59526a8.49248,8.49248,0,0,1-9.23766-12.42986L40.15976,28.9633a8.49253,8.49253,0,0,1,.15807,15.48583Z" fill="#a5b5a9" opacity="0.5"/>
    </g>
  </g>
</svg>
