<svg xmlns="http://www.w3.org/2000/svg" width="556.74207" height="615.15826" viewBox="0 0 556.74207 615.15826">
  <title>tray</title>
  <g id="Layer_2" data-name="Layer 2">
    <g id="tray">
      <path d="M278.37109,0C124.631,0,0,124.631,0,278.371,0,416.66486,100.85266,531.38434,233.0177,553.04419v59.27942a2.83459,2.83459,0,0,0,2.83447,2.83465h85.03955a2.8346,2.8346,0,0,0,2.83448-2.83465V553.044C455.89038,531.38336,556.74207,416.66431,556.74207,278.371,556.74207,124.631,432.11121,0,278.37109,0ZM252.85925,603.80981a5.66928,5.66928,0,1,1,5.66931-5.66931A5.66927,5.66927,0,0,1,252.85925,603.80981Zm0-92.11615a5.66928,5.66928,0,1,1,5.66931-5.66925A5.66926,5.66926,0,0,1,252.85925,511.69366Zm25.51184,70.86615a9.92126,9.92126,0,1,1,9.92127-9.92126A9.92125,9.92125,0,0,1,278.37109,582.55981Zm-8.76281-304.11517a8.50391,8.50391,0,1,1,8.49755,8.51032A8.50385,8.50385,0,0,1,269.60828,278.44464Zm34.26965,325.36517a5.66928,5.66928,0,1,1,5.66931-5.66931A5.66935,5.66935,0,0,1,303.87793,603.80981Zm0-92.11615a5.66928,5.66928,0,1,1,5.66931-5.66925A5.66933,5.66933,0,0,1,303.87793,511.69366ZM278.37109,170.07874A56.69294,56.69294,0,1,1,335.064,113.3858,56.693,56.693,0,0,1,278.37109,170.07874Z" fill="#a5b5a9" opacity="0.5"/>
    </g>
  </g>
</svg>
